<svg id="Layer_1" data-name="Layer 1" xmlns="http://www.w3.org/2000/svg" viewBox="0 0 96 96"><path d="M78.83,84.45H17.17a5.62,5.62,0,0,1-5.62-5.62V73.16a1,1,0,0,1,1-1,3.85,3.85,0,1,0,0-7.69,1,1,0,0,1-1-1V32.53a1,1,0,0,1,1-1,3.85,3.85,0,1,0,0-7.69,1,1,0,0,1-1-1V17.17a5.62,5.62,0,0,1,5.62-5.62H78.83a5.62,5.62,0,0,1,5.62,5.62v5.67a1,1,0,0,1-1,1,3.85,3.85,0,1,0,0,7.69,1,1,0,0,1,1,1V63.47a1,1,0,0,1-1,1,3.85,3.85,0,1,0,0,7.69,1,1,0,0,1,1,1v5.67A5.62,5.62,0,0,1,78.83,84.45ZM13.55,74.07v4.76a3.63,3.63,0,0,0,3.62,3.62H78.83a3.63,3.63,0,0,0,3.62-3.62V74.07a5.85,5.85,0,0,1,0-11.52V33.45a5.85,5.85,0,0,1,0-11.52V17.17a3.63,3.63,0,0,0-3.62-3.62H17.17a3.63,3.63,0,0,0-3.62,3.62v4.76a5.85,5.85,0,0,1,0,11.52v29.1a5.85,5.85,0,0,1,0,11.52Z"/><path d="M65.75,72.39H57.6a1,1,0,0,1-.79-.4l-3.28-4.36H42.47L39.19,72a1,1,0,0,1-.79.4H30.24a6.64,6.64,0,0,1-6.63-6.63V30.24a6.64,6.64,0,0,1,6.63-6.63H60a1,1,0,0,1,.78.37,1,1,0,0,1,.2.83,9.1,9.1,0,0,0-.15,1.58,9,9,0,0,0,9,9,7.46,7.46,0,0,0,1.35-.11,1,1,0,0,1,1.17,1v29.5A6.64,6.64,0,0,1,65.75,72.39Zm-7.65-2h7.65a4.63,4.63,0,0,0,4.62-4.63V37.37h-.52a11,11,0,0,1-11-11q0-.39,0-.78H30.24a4.64,4.64,0,0,0-4.63,4.63V65.76a4.64,4.64,0,0,0,4.63,4.63H37.9L41.17,66a1,1,0,0,1,.8-.4H54a1,1,0,0,1,.8.4Z"/><path d="M77.53,18.88a1,1,0,0,1-.38-.07,1.19,1.19,0,0,1-.33-.22,1,1,0,0,1-.29-.71,1,1,0,0,1,.29-.7,1,1,0,0,1,1.42,0,1,1,0,0,1,.29.7,1,1,0,0,1-.07.39,1,1,0,0,1-.22.32,1.06,1.06,0,0,1-.33.22A1,1,0,0,1,77.53,18.88Z"/><path d="M77.53,79.12a1,1,0,0,1-.71-.3,1,1,0,0,1,0-1.41,1,1,0,0,1,1.42,0,1,1,0,0,1,.29.71,1,1,0,0,1-.29.7A1,1,0,0,1,77.53,79.12Z"/><path d="M18.47,18.88a1,1,0,0,1-.38-.07,1.19,1.19,0,0,1-.33-.22,1,1,0,0,1-.22-.32,1,1,0,0,1,.22-1.09.83.83,0,0,1,.33-.22,1,1,0,0,1,1.09.22,1,1,0,0,1,.29.7,1,1,0,0,1-.08.39,1,1,0,0,1-.21.32A1,1,0,0,1,18.47,18.88Z"/><path d="M18.47,79.12a1,1,0,0,1-.71-.3,1,1,0,0,1-.29-.7,1,1,0,0,1,.29-.71,1,1,0,0,1,.33-.22,1,1,0,0,1,1.38.93,1,1,0,0,1-1,1Z"/><path d="M28,13.54H22.58a1,1,0,0,1-1-1V4.93A2.94,2.94,0,0,1,24.52,2h1.57A2.94,2.94,0,0,1,29,4.93v7.61A1,1,0,0,1,28,13.54Zm-4.44-2H27V4.93A.93.93,0,0,0,26.09,4H24.52a.94.94,0,0,0-.94.93Z"/><path d="M43.15,13.54H37.72a1,1,0,0,1-1-1V4.93A2.93,2.93,0,0,1,39.65,2h1.57a2.93,2.93,0,0,1,2.93,2.93v7.61A1,1,0,0,1,43.15,13.54Zm-4.43-2h3.43V4.93A.93.93,0,0,0,41.22,4H39.65a.93.93,0,0,0-.93.93Z"/><path d="M58.28,13.54H52.85a1,1,0,0,1-1-1V4.93A2.93,2.93,0,0,1,54.78,2h1.57a2.93,2.93,0,0,1,2.93,2.93v7.61A1,1,0,0,1,58.28,13.54Zm-4.43-2h3.43V4.93A.93.93,0,0,0,56.35,4H54.78a.93.93,0,0,0-.93.93Z"/><path d="M73.42,13.54H68a1,1,0,0,1-1-1V4.93A2.94,2.94,0,0,1,69.91,2h1.57a2.94,2.94,0,0,1,2.94,2.93v7.61A1,1,0,0,1,73.42,13.54Zm-4.44-2h3.44V4.93A.94.94,0,0,0,71.48,4H69.91a.93.93,0,0,0-.93.93Z"/><path d="M71.48,94H69.91A2.94,2.94,0,0,1,67,91.07V83.46a1,1,0,0,1,1-1h5.44a1,1,0,0,1,1,1v7.61A2.94,2.94,0,0,1,71.48,94ZM69,84.46v6.61a.93.93,0,0,0,.93.93h1.57a.94.94,0,0,0,.94-.93V84.46Z"/><path d="M56.35,94H54.78a2.93,2.93,0,0,1-2.93-2.93V83.46a1,1,0,0,1,1-1h5.43a1,1,0,0,1,1,1v7.61A2.93,2.93,0,0,1,56.35,94Zm-2.5-9.54v6.61a.93.93,0,0,0,.93.93h1.57a.93.93,0,0,0,.93-.93V84.46Z"/><path d="M41.22,94H39.65a2.93,2.93,0,0,1-2.93-2.93V83.46a1,1,0,0,1,1-1h5.43a1,1,0,0,1,1,1v7.61A2.93,2.93,0,0,1,41.22,94Zm-2.5-9.54v6.61a.93.93,0,0,0,.93.93h1.57a.93.93,0,0,0,.93-.93V84.46Z"/><path d="M26.09,94H24.52a2.94,2.94,0,0,1-2.94-2.93V83.46a1,1,0,0,1,1-1H28a1,1,0,0,1,1,1v7.61A2.94,2.94,0,0,1,26.09,94Zm-2.51-9.54v6.61a.94.94,0,0,0,.94.93h1.57a.93.93,0,0,0,.93-.93V84.46Z"/><path d="M91.07,44.15H83.46a1,1,0,0,1-1-1V37.72a1,1,0,0,1,1-1h7.61A2.93,2.93,0,0,1,94,39.65v1.57A2.93,2.93,0,0,1,91.07,44.15Zm-6.61-2h6.61a.93.93,0,0,0,.93-.93V39.65a.93.93,0,0,0-.93-.93H84.46Z"/><path d="M91.07,59.28H83.46a1,1,0,0,1-1-1V52.85a1,1,0,0,1,1-1h7.61A2.93,2.93,0,0,1,94,54.78v1.57A2.93,2.93,0,0,1,91.07,59.28Zm-6.61-2h6.61a.93.93,0,0,0,.93-.93V54.78a.93.93,0,0,0-.93-.93H84.46Z"/><path d="M12.54,59.28H4.93A2.93,2.93,0,0,1,2,56.35V54.78a2.93,2.93,0,0,1,2.93-2.93h7.61a1,1,0,0,1,1,1v5.43A1,1,0,0,1,12.54,59.28ZM4.93,53.85a.93.93,0,0,0-.93.93v1.57a.93.93,0,0,0,.93.93h6.61V53.85Z"/><path d="M12.54,44.15H4.93A2.93,2.93,0,0,1,2,41.22V39.65a2.93,2.93,0,0,1,2.93-2.93h7.61a1,1,0,0,1,1,1v5.43A1,1,0,0,1,12.54,44.15ZM4.93,38.72a.93.93,0,0,0-.93.93v1.57a.93.93,0,0,0,.93.93h6.61V38.72Z"/><path d="M69.85,31a4.57,4.57,0,1,1,4.57-4.57A4.58,4.58,0,0,1,69.85,31Zm0-7.14a2.57,2.57,0,1,0,2.57,2.57A2.57,2.57,0,0,0,69.85,23.82Z"/></svg>