<?xml version="1.0" standalone="no"?>
<!DOCTYPE svg PUBLIC "-//W3C//DTD SVG 20010904//EN"
 "http://www.w3.org/TR/2001/REC-SVG-20010904/DTD/svg10.dtd">
<svg version="1.0" xmlns="http://www.w3.org/2000/svg"
 width="480.000000pt" height="319.000000pt" viewBox="0 0 480.000000 319.000000"
 preserveAspectRatio="xMidYMid meet">

<g transform="translate(0.000000,319.000000) scale(0.100000,-0.100000)"
fill="#000000" stroke="none">
<path d="M1423 2869 c-36 -10 -50 -26 -36 -40 13 -13 45 0 39 16 -3 8 2 11 14
8 19 -5 18 -6 -3 -25 l-22 -19 32 6 c17 4 41 1 52 -5 15 -8 21 -8 21 0 0 6 7
4 16 -4 8 -9 20 -16 25 -16 6 0 7 -9 4 -21 -6 -18 -4 -20 14 -14 15 4 21 2 21
-9 0 -12 -9 -15 -43 -12 -28 3 -50 -1 -62 -11 -19 -15 -19 -15 7 -11 15 3 25
2 23 -2 -3 -4 14 -11 37 -14 31 -5 39 -9 28 -16 -11 -7 -3 -11 28 -16 23 -3
52 -15 63 -25 12 -11 27 -19 32 -19 6 0 8 -3 4 -6 -3 -3 -20 1 -39 9 -66 30
-178 49 -248 41 -36 -4 -69 -7 -73 -6 -5 2 -6 -2 -2 -8 3 -5 11 -10 17 -10 13
0 145 -87 154 -102 4 -5 -22 9 -57 32 -126 82 -214 106 -294 80 -81 -27 -141
-115 -152 -225 -5 -44 -2 -56 16 -74 23 -23 52 -27 81 -11 15 8 19 5 25 -17
11 -46 14 -133 5 -133 -6 0 -10 -7 -10 -15 0 -8 5 -15 11 -15 5 0 7 5 4 10 -3
6 -1 10 4 10 6 0 11 -7 11 -15 0 -16 35 -21 44 -6 8 13 100 41 134 41 32 0 44
16 37 51 -7 38 -33 47 -120 44 -51 -2 -71 0 -55 5 14 4 19 8 13 9 -18 1 -16
41 2 85 10 23 20 34 27 30 7 -4 8 -3 4 5 -11 17 13 41 62 62 75 32 140 22 232
-35 30 -19 76 -47 103 -62 26 -15 45 -30 42 -33 -9 -9 -47 -12 -41 -3 7 12
-25 8 -50 -6 -11 -6 -44 -14 -73 -18 -30 -4 -55 -13 -58 -20 -3 -8 -11 -14
-19 -14 -8 0 -14 -5 -14 -10 0 -6 -10 -15 -22 -20 -21 -9 -20 -10 7 -7 30 2
30 1 27 -43 -2 -25 -3 -73 -2 -108 1 -58 -1 -63 -25 -72 -32 -12 -38 -12 -31
-1 5 7 -41 34 -54 32 -3 0 -6 -10 -6 -22 -2 -29 -83 -102 -99 -89 -8 6 -15 6
-23 -2 -19 -19 -14 -38 11 -39 21 0 21 -1 2 -8 -16 -6 -10 -10 27 -15 49 -7
78 -35 78 -76 0 -11 5 -20 10 -20 6 0 10 17 10 38 1 31 2 34 11 19 6 -10 8
-25 5 -33 -3 -8 1 -14 10 -14 8 0 13 -4 10 -9 -3 -5 8 -11 24 -13 16 -3 32 0
34 6 2 6 5 3 5 -6 1 -22 20 -23 49 -2 12 8 22 12 22 8 0 -5 5 -3 12 4 7 7 19
12 27 12 20 0 84 58 95 85 6 16 9 17 16 5 5 -8 12 -11 16 -7 4 3 1 13 -6 22
-8 10 -9 15 -1 15 6 0 11 14 11 30 0 25 4 30 25 30 14 0 25 -6 25 -12 0 -9 4
-8 10 2 8 12 10 10 10 -10 0 -18 3 -21 9 -11 7 11 10 8 16 -10 4 -13 3 -25 -2
-26 -6 -2 -8 -15 -5 -29 5 -29 -17 -51 -31 -31 -6 8 -7 4 -4 -10 3 -13 1 -23
-4 -23 -5 0 -9 -9 -9 -20 0 -11 -3 -20 -8 -20 -4 0 -19 -11 -34 -24 -14 -14
-28 -23 -31 -20 -2 3 -7 -6 -11 -20 -5 -22 -39 -43 -60 -38 -4 2 -14 -2 -21
-8 -8 -6 -27 -12 -44 -12 -17 -1 -31 -5 -31 -10 0 -4 -10 -8 -22 -8 -19 0 -20
2 -8 11 12 9 10 10 -9 5 -18 -3 -29 2 -43 20 -11 13 -26 24 -33 24 -21 0 -54
40 -48 56 4 10 0 12 -11 8 -12 -5 -16 0 -16 17 0 13 -4 31 -9 39 -7 9 -9 -2
-6 -33 3 -46 31 -86 61 -87 14 0 28 -28 26 -50 -1 -10 0 -11 4 -3 7 16 33 3
69 -33 23 -23 32 -25 85 -22 62 3 79 -5 34 -16 -15 -4 -52 -1 -83 5 -31 7 -60
12 -65 10 -5 -1 -6 6 -2 15 5 13 1 13 -29 -5 -25 -14 -35 -16 -35 -7 0 7 -12
23 -26 37 -15 14 -23 31 -21 41 3 10 0 18 -5 18 -15 0 -34 26 -60 83 -13 26
-26 47 -30 47 -5 0 -8 11 -8 25 0 18 4 23 15 19 8 -4 15 -1 15 5 0 6 -7 11
-15 11 -20 0 -29 43 -17 80 6 16 7 30 2 30 -5 0 -10 -8 -12 -17 -2 -10 -7 22
-11 71 -4 50 -10 92 -12 95 -12 12 -15 -10 -6 -50 5 -24 11 -108 13 -187 2
-109 6 -141 16 -137 11 4 16 -7 13 -27 0 -5 4 -7 10 -5 6 1 14 -4 17 -12 3 -8
0 -11 -7 -7 -7 5 -11 -1 -11 -14 0 -12 -4 -19 -9 -15 -5 3 -12 1 -16 -5 -3 -5
0 -10 7 -10 8 -1 5 -6 -7 -16 -11 -8 -25 -12 -32 -10 -6 3 -13 1 -15 -4 -6
-19 -53 16 -52 38 0 12 -5 22 -13 22 -7 0 -13 -10 -13 -22 0 -17 -3 -19 -9 -9
-7 10 -10 10 -13 1 -6 -19 -118 -27 -128 -9 -12 18 -3 29 25 29 17 0 25 6 27
23 l3 22 23 -22 c17 -18 22 -19 22 -8 0 9 -7 18 -15 21 -8 4 -13 10 -10 14 3
5 -4 8 -16 7 -11 -1 -25 -9 -30 -19 -10 -19 -39 -25 -39 -9 0 13 -103 9 -112
-4 -15 -20 -7 -25 36 -25 25 0 48 -4 51 -10 3 -5 -1 -10 -10 -10 -8 0 -18 -7
-21 -15 -5 -11 -10 -13 -19 -5 -7 5 -25 8 -41 4 -22 -4 -32 0 -41 15 -8 13 -9
22 -3 26 19 12 10 23 -22 30 -18 4 -43 13 -55 21 -20 13 -23 13 -23 0 0 -8 -5
-16 -11 -18 -5 -2 -7 -11 -3 -22 5 -14 16 -17 50 -14 39 3 43 1 42 -18 -2 -18
-6 -20 -36 -13 -18 4 -59 4 -90 -1 -37 -5 -63 -3 -74 4 -13 8 -21 7 -30 -2
-15 -15 -54 -16 -63 -2 -3 6 -21 10 -40 10 -19 0 -37 5 -40 10 -4 6 13 10 43
10 55 0 77 22 45 45 -16 12 -16 14 -1 29 9 9 21 16 27 16 6 0 11 4 11 10 0 5
8 7 18 4 14 -5 14 -3 -2 10 -19 16 -19 16 4 16 13 0 21 3 17 6 -11 11 -151 12
-165 1 -7 -5 -36 -7 -68 -4 -43 4 -56 2 -61 -9 -3 -8 -3 -18 1 -21 3 -4 54 -6
111 -6 58 1 105 0 105 -2 0 -2 -7 -10 -15 -18 -11 -11 -24 -13 -58 -6 -24 4
-60 4 -80 -1 -20 -4 -37 -6 -37 -4 0 3 -11 -3 -24 -11 -19 -12 -30 -14 -44 -6
-11 6 -22 8 -25 4 -8 -8 -67 17 -67 28 0 9 36 49 45 49 3 0 4 -5 3 -11 -2 -6
3 -14 10 -16 7 -3 10 1 6 10 -3 8 2 17 10 20 9 4 16 11 16 17 0 6 -5 8 -11 4
-6 -4 -45 -6 -85 -5 l-74 2 0 -219 0 -219 98 2 c53 2 242 4 419 5 315 3 323 4
342 24 12 12 35 23 53 24 18 2 48 4 66 6 26 2 31 -1 26 -13 -4 -9 -8 -23 -9
-31 -1 -8 -8 -28 -14 -45 -7 -16 -15 -43 -18 -60 -3 -16 -15 -46 -26 -65 l-19
-35 6 35 c6 30 5 32 -7 16 -13 -17 -14 -17 -28 0 -8 11 -9 15 -2 10 9 -5 12 0
10 16 -1 13 -5 26 -10 29 -10 7 31 49 49 49 8 0 17 13 21 30 3 17 12 30 19 30
8 0 14 4 14 8 0 5 -19 9 -43 10 -35 2 -52 -4 -96 -35 -30 -21 -61 -49 -69 -63
l-14 -25 20 25 c11 14 24 21 28 17 9 -9 -8 -42 -47 -87 l-29 -35 5 30 c3 17 2
24 -1 18 -3 -7 -20 -14 -37 -14 -24 -1 -26 -3 -9 -6 27 -5 27 -5 -4 -54 -18
-29 -29 -38 -37 -31 -8 6 -61 5 -152 -3 -77 -8 -142 -12 -144 -9 -2 2 -10 -1
-17 -7 -7 -6 -15 -6 -18 -1 -3 5 -19 8 -35 6 -17 -2 -33 1 -36 6 -4 6 -11 7
-17 3 -7 -3 -57 -6 -111 -5 -61 1 -106 -3 -114 -9 -15 -13 -18 -89 -4 -89 6 0
12 4 15 8 2 4 31 10 63 12 89 7 412 6 470 -2 36 -4 54 -3 58 5 6 13 -1 -19
-12 -55 -6 -20 -4 -21 9 -10 39 32 20 -73 -22 -123 -21 -25 -40 -80 -39 -114
0 -24 2 -23 14 9 7 19 14 28 14 20 1 -8 -8 -32 -19 -53 -11 -20 -20 -43 -20
-51 0 -8 -13 -30 -30 -48 -16 -18 -30 -40 -30 -49 0 -9 -7 -20 -15 -23 -9 -3
-15 -11 -14 -18 4 -32 -3 -46 -28 -57 -19 -9 -29 -9 -31 -2 -9 27 -22 -4 -16
-37 7 -34 6 -36 -9 -23 -14 11 -17 11 -18 0 0 -8 -7 1 -15 18 -16 38 -26 42
-24 11 4 -43 1 -51 -13 -40 -16 14 -10 85 7 76 6 -3 0 4 -13 16 -20 17 -22 23
-11 30 8 5 11 12 7 17 -5 4 -12 2 -16 -5 -4 -7 -15 -10 -24 -6 -10 3 -33 3
-52 0 -28 -6 -35 -11 -35 -30 0 -15 -7 -26 -20 -29 -16 -4 -20 0 -20 23 0 15
-7 33 -16 41 -13 11 -14 9 -9 -12 3 -13 2 -35 -3 -49 -5 -13 -6 -38 -2 -56 8
-36 -3 -67 -14 -39 -3 9 -6 34 -6 55 0 21 -4 41 -9 44 -4 3 -11 19 -15 36 l-6
30 -20 -20 c-19 -19 -20 -32 -20 -305 1 -280 1 -285 21 -285 16 0 20 6 19 28
-3 41 -1 45 14 33 11 -9 17 -8 29 4 20 20 27 19 27 -4 0 -14 6 -17 25 -13 18
3 25 0 25 -12 0 -12 -6 -15 -25 -10 -19 5 -25 2 -25 -10 0 -13 11 -16 50 -16
l50 0 -7 33 c-3 17 -13 40 -21 50 -10 11 -11 17 -4 17 7 0 12 -4 12 -9 0 -7
25 -19 52 -25 12 -2 21 -16 11 -16 -6 0 -13 -10 -15 -23 -4 -20 -1 -23 18 -19
32 6 52 31 35 41 -10 6 -9 10 4 15 33 12 46 7 36 -13 -10 -18 -6 -31 11 -31 4
0 8 7 8 15 0 8 5 15 10 15 7 0 7 -6 0 -19 -5 -11 -10 -22 -10 -25 0 -3 113 -6
250 -6 188 0 250 3 250 12 0 9 3 9 12 0 10 -10 16 -8 31 10 l18 23 -11 -23
-11 -23 100 2 c83 1 101 4 104 18 4 14 5 14 6 -1 1 -16 12 -18 81 -18 52 0 80
4 80 11 0 8 4 9 13 0 8 -6 17 -8 20 -4 13 12 7 23 -13 23 -11 0 -20 4 -20 9 0
5 -25 7 -55 5 -30 -3 -63 0 -74 6 -12 6 -22 6 -25 1 -3 -5 -15 -7 -26 -4 -11
3 -17 9 -14 14 3 5 2 8 -3 7 -18 -5 -83 25 -83 38 0 9 -4 12 -10 9 -14 -9 -12
18 3 38 10 14 18 15 47 7 19 -6 51 -13 70 -16 19 -2 43 -7 52 -10 38 -12 124
-21 268 -29 107 -6 133 -12 128 -27 -5 -14 -23 -18 -130 -25 -48 -3 -85 -10
-82 -14 3 -5 0 -9 -5 -9 -6 0 -11 -7 -11 -15 0 -13 149 -15 1283 -15 l1284 0
11 26 c13 26 6 104 -9 104 -4 0 -9 -10 -11 -23 -3 -17 -6 -14 -12 15 -5 21 -5
45 -2 54 5 14 9 12 26 -9 11 -14 20 -33 20 -42 0 -9 12 -27 26 -40 21 -20 25
-30 19 -54 l-7 -31 108 0 c102 0 108 1 130 26 13 14 24 29 24 35 0 5 5 9 11 9
9 0 7 -16 -8 -57 -4 -10 33 -13 166 -13 94 0 171 4 171 9 0 5 -7 25 -15 44
-17 42 -18 47 -7 47 12 0 44 -78 37 -90 -4 -6 29 -10 95 -10 93 0 100 1 92 18
-17 32 -52 111 -52 117 0 18 24 -13 41 -51 10 -25 25 -47 34 -50 8 -4 15 -12
15 -20 0 -8 5 -14 10 -14 6 0 10 68 10 184 l0 185 -27 -15 c-16 -7 -34 -14
-40 -14 -12 0 -14 5 -17 43 -1 6 6 12 14 12 17 0 21 26 5 32 -6 2 -16 -11 -24
-28 l-14 -32 -16 29 c-8 16 -14 34 -13 40 1 7 -13 10 -40 7 -24 -2 -85 -3
-135 -3 -64 0 -93 -3 -93 -11 0 -8 -4 -8 -12 -2 -30 23 -65 23 -100 -1 -33
-22 -36 -22 -46 -5 -9 13 -8 20 3 29 24 20 18 47 -10 52 -14 3 -28 1 -31 -3
-3 -5 -18 -9 -34 -9 -28 0 -80 -47 -80 -72 0 -6 -8 -1 -19 10 -10 12 -23 22
-30 22 -6 0 -11 11 -11 24 0 23 -16 44 -25 34 -3 -2 -5 -19 -7 -37 -2 -25 -6
-31 -20 -28 -11 3 -20 -2 -23 -14 -7 -21 -20 -25 -30 -8 -12 18 -49 26 -95 20
l-45 -6 -5 -113 c-3 -71 -1 -112 5 -112 6 0 2 -5 -9 -11 -22 -14 -36 2 -36 43
0 14 -3 34 -7 44 -4 12 -3 15 5 10 7 -4 12 -1 12 8 0 9 -4 16 -10 16 -5 0 -10
9 -10 21 0 11 5 17 10 14 6 -3 10 2 10 12 0 11 4 23 9 29 5 5 5 19 -2 34 -10
25 -11 25 -14 3 l-4 -23 -23 25 c-22 24 -43 35 -32 16 3 -5 -16 -11 -41 -14
-26 -3 -49 -10 -51 -16 -3 -9 -8 -8 -19 1 -26 21 -81 36 -92 25 -7 -7 -8 -3
-5 10 3 12 1 24 -5 27 -7 4 -11 -1 -11 -13 0 -12 -4 -21 -10 -21 -5 0 -10 6
-10 14 0 8 -5 18 -11 22 -8 5 -10 -1 -7 -20 6 -29 -6 -34 -29 -10 -15 14 -17
14 -26 -1 -5 -9 -6 -19 -3 -22 3 -4 6 -1 6 5 0 7 5 12 12 12 9 0 9 -3 0 -12
-7 -7 -12 -21 -13 -32 -1 -18 -2 -17 -8 4 -5 18 -15 26 -35 28 -25 3 -34 18
-102 158 -41 85 -88 195 -105 245 -17 50 -46 127 -65 170 -19 44 -32 84 -28
91 4 7 3 8 -4 4 -18 -11 -39 41 -23 57 9 9 14 9 21 -3 5 -8 12 -11 16 -7 4 3
1 13 -6 22 -15 18 -64 21 -55 3 19 -37 -42 46 -75 102 -21 36 -54 81 -74 99
-20 19 -36 37 -36 41 0 3 192 6 428 6 364 1 547 6 547 15 0 6 51 6 60 0 13 -9
26 -8 45 4 8 6 71 10 140 11 368 1 410 3 410 19 0 8 7 15 15 15 8 0 15 -7 15
-15 0 -12 28 -15 163 -17 89 -2 168 -1 175 1 9 2 12 38 12 137 0 74 -4 134 -8
134 -4 0 -13 -5 -19 -11 -8 -8 -58 -11 -160 -9 -430 9 -601 -4 -543 -40 12 -8
11 -10 -6 -10 -13 0 -24 8 -27 19 -4 16 -13 18 -83 14 -44 -3 -115 -6 -159 -8
-44 -2 -102 -6 -128 -10 -33 -5 -56 -4 -72 5 -20 11 -26 10 -41 -5 -17 -16
-18 -16 -25 3 -7 19 -14 21 -81 16 -40 -2 -77 -9 -82 -14 -18 -18 -55 -10 -79
16 -30 32 -70 30 -75 -4 -3 -16 -8 -22 -18 -18 -9 3 -35 -3 -59 -14 -49 -23
-72 -25 -77 -9 -5 15 -134 25 -150 12 -7 -6 -22 -7 -33 -3 -11 4 -28 3 -38 -2
-9 -5 -47 -10 -85 -12 -37 -1 -59 -1 -49 1 27 7 9 23 -25 23 -24 0 -29 -3 -24
-16 4 -12 2 -15 -9 -11 -8 4 -17 2 -20 -4 -9 -14 -27 1 -21 17 9 23 -80 19
-96 -5 -13 -19 -29 -25 -58 -22 -13 1 -13 3 -1 10 8 5 20 7 27 4 6 -2 15 0 18
5 7 12 -58 25 -85 17 -22 -7 -117 34 -169 75 -19 15 -51 35 -70 45 -40 20 -71
53 -103 110 -37 68 -38 83 -10 128 24 38 69 202 53 192 -8 -5 -20 46 -19 79 0
21 1 21 10 1 7 -16 8 -14 3 10 -6 34 -31 65 -50 65 -7 0 -23 -13 -35 -30 -12
-16 -26 -27 -30 -24 -11 7 12 44 27 44 9 0 10 10 4 33 -5 17 -15 59 -24 92
-32 131 -39 151 -66 190 -32 44 -104 115 -119 115 -5 0 -12 9 -16 19 -9 30
-134 67 -185 56 -16 -3 -31 -1 -35 4 -8 13 -107 13 -152 0z m-13 -29 c0 -5 -4
-10 -10 -10 -5 0 -10 5 -10 10 0 6 5 10 10 10 6 0 10 -4 10 -10z m367 -82 c-3
-7 -5 -2 -5 12 0 14 2 19 5 13 2 -7 2 -19 0 -25z m-117 -33 c0 -7 -11 -12 -25
-11 -16 0 -25 7 -25 17 0 12 7 15 25 11 14 -2 25 -10 25 -17z m127 -22 c-3
-10 -5 -4 -5 12 0 17 2 24 5 18 2 -7 2 -21 0 -30z m-354 -60 c-7 -2 -19 -2
-25 0 -7 3 -2 5 12 5 14 0 19 -2 13 -5z m371 -25 c7 -34 3 -44 -13 -33 -13 7
-15 65 -2 65 5 0 11 -14 15 -32z m-47 -14 c-3 -3 -12 -4 -19 -1 -8 3 -5 6 6 6
11 1 17 -2 13 -5z m98 -34 c3 -5 2 -10 -4 -10 -5 0 -13 5 -16 10 -3 6 -2 10 4
10 5 0 13 -4 16 -10z m19 -98 c3 -5 -1 -9 -9 -9 -8 0 -12 4 -9 9 3 4 7 8 9 8
2 0 6 -4 9 -8z m16 -71 c0 -11 -4 -9 -15 5 -8 10 -15 25 -15 33 0 11 4 9 15
-5 8 -10 15 -25 15 -33z m66 19 c8 0 14 -2 14 -4 0 -2 3 -12 7 -22 5 -13 3
-15 -8 -9 -11 6 -12 5 -1 -6 6 -7 12 -17 12 -21 0 -13 -48 21 -54 39 -5 13 -4
14 8 4 11 -9 16 -9 22 0 4 8 3 9 -4 5 -7 -4 -12 -5 -12 -2 0 2 -2 10 -3 18 -2
7 -2 10 0 6 3 -5 11 -8 19 -8z m-324 -112 c3 -9 -16 -17 -56 -25 -65 -14 -86
-10 -40 7 16 5 36 14 44 19 22 14 48 13 52 -1z m414 -6 c-3 -5 4 -25 15 -46
21 -39 18 -70 -9 -117 -9 -16 -12 -34 -7 -45 6 -15 12 -7 27 39 11 32 22 56
24 54 7 -6 -39 -147 -47 -147 -5 0 -6 6 -3 14 3 8 -4 21 -16 29 -18 13 -20 18
-10 36 6 12 8 26 5 31 -4 6 -1 9 6 8 16 -4 31 64 17 77 -8 7 -9 5 -4 -5 4 -8
0 -6 -8 4 -22 27 -18 76 6 76 5 0 7 -4 4 -8z m-259 -48 c5 -15 -13 -87 -27
-109 -4 -5 -6 -20 -5 -33 1 -16 -5 -24 -22 -28 -23 -6 -23 -7 -6 -27 17 -19
17 -19 -4 -13 -16 5 -23 2 -28 -14 -6 -20 -7 -20 -26 2 -12 13 -17 17 -14 10
6 -11 3 -11 -14 0 -12 7 -21 18 -21 25 0 7 -6 13 -12 13 -17 0 -78 52 -78 67
0 17 -27 36 -35 23 -3 -5 1 -10 9 -10 9 0 16 -5 16 -10 0 -7 -7 -7 -21 0 -16
9 -19 18 -14 37 4 17 2 23 -6 18 -8 -6 -8 -2 0 14 7 11 19 21 27 21 8 0 12 -5
8 -11 -5 -8 -1 -8 14 0 27 14 35 14 26 -1 -5 -7 -3 -8 5 -4 7 5 10 15 7 23 -4
9 -2 11 6 7 7 -4 35 -6 62 -5 40 2 48 0 39 -10 -7 -6 -29 -15 -50 -19 -35 -7
-36 -8 -8 -9 17 0 42 7 55 17 21 15 79 38 103 41 4 1 10 -6 14 -15z m-439 -3
c6 0 12 -5 12 -10 0 -4 -10 -6 -22 -4 -13 2 -45 -3 -73 -11 -55 -17 -83 -6
-41 16 23 12 68 15 124 9z m159 -193 c-3 -8 -6 -5 -6 6 -1 11 2 17 5 13 3 -3
4 -12 1 -19z m126 -38 c21 -24 36 -44 35 -45 -9 -8 -67 9 -61 18 4 6 1 7 -6 3
-7 -5 -10 -14 -7 -21 3 -9 -8 -15 -32 -20 -20 -4 -49 -13 -64 -21 -15 -8 -41
-14 -59 -14 -31 0 -32 0 -14 20 11 12 31 20 51 20 24 0 32 4 28 14 -4 10 2 12
23 8 24 -4 26 -3 16 9 -10 12 -8 17 9 28 14 9 19 20 15 36 -6 32 16 21 66 -35z
m-233 -42 c0 -5 -7 -8 -15 -8 -8 0 -15 -5 -15 -11 0 -5 -5 -7 -11 -3 -6 3 -15
0 -20 -7 -7 -12 -9 -11 -9 1 0 9 7 25 15 38 14 18 19 20 35 9 11 -6 20 -15 20
-19z m250 -62 c0 -2 -7 -7 -16 -10 -8 -3 -12 -2 -9 4 6 10 25 14 25 6z m-70
-57 c-23 -20 -43 -26 -82 -28 -28 -1 -54 -3 -58 -6 -9 -6 -70 33 -70 45 0 14
17 12 23 -2 4 -9 8 -10 14 -3 4 6 26 10 48 9 22 -1 51 2 65 6 14 4 40 7 58 6
l33 -1 -31 -26z m-1133 -35 c-3 -3 -12 -4 -19 -1 -8 3 -5 6 6 6 11 1 17 -2 13
-5z m1346 -27 c3 -7 -1 -21 -9 -32 -13 -17 -14 -17 -14 13 0 32 14 43 23 19z
m-33 -31 c0 -2 -8 -10 -17 -17 -16 -13 -17 -12 -4 4 13 16 21 21 21 13z m327
-79 c-2 -6 -11 -11 -20 -13 -9 -1 -15 2 -11 7 3 5 0 9 -5 9 -14 0 -14 26 0 52
11 20 12 20 25 -12 8 -18 13 -38 11 -43z m-287 4 c0 -6 -4 -13 -10 -16 -5 -3
-10 1 -10 9 0 9 5 16 10 16 6 0 10 -4 10 -9z m-556 -10 c3 -5 -1 -11 -9 -14
-9 -4 -12 -1 -8 9 6 16 10 17 17 5z m1082 -13 c15 -13 24 -17 20 -10 -7 11 -4
11 13 0 30 -18 33 -36 10 -49 -17 -8 -23 -7 -35 8 -7 10 -14 13 -14 6 0 -6 5
-15 11 -19 6 -3 9 -15 6 -25 -3 -11 -1 -19 5 -19 5 0 8 -10 6 -22 -4 -27 18
-36 26 -10 4 10 21 32 38 48 l32 29 -29 -35 c-17 -20 -38 -53 -49 -75 -10 -22
-29 -60 -41 -85 -33 -65 -41 -110 -20 -110 10 0 13 5 9 13 -4 6 -3 9 1 4 5 -4
17 1 27 10 17 15 18 15 13 1 -4 -9 -14 -20 -23 -23 -15 -6 -15 -8 3 -16 13 -5
6 -6 -21 -2 -37 4 -43 2 -49 -16 -3 -11 -11 -21 -16 -21 -5 0 -9 -7 -9 -15 0
-26 18 -16 29 17 6 17 13 29 16 26 3 -3 0 -17 -6 -32 -18 -39 -1 -46 27 -11
14 17 22 23 19 15 -5 -14 43 -46 53 -35 3 2 5 28 5 57 0 30 6 57 13 63 7 6 22
39 34 75 23 71 72 155 95 164 8 3 15 1 15 -4 0 -6 -4 -10 -10 -10 -26 0 -135
-245 -127 -287 2 -13 0 -23 -4 -23 -5 0 -9 -5 -9 -11 0 -5 5 -7 11 -3 6 3 3
-6 -6 -20 -13 -19 -21 -24 -28 -17 -15 15 -27 13 -27 -4 0 -8 5 -15 12 -15 6
0 9 -2 6 -5 -2 -3 -26 2 -52 11 -26 9 -48 15 -49 13 -1 -2 -15 -29 -31 -59
-32 -60 -66 -108 -66 -93 0 5 20 42 44 83 45 74 52 97 21 66 -9 -9 -13 -16 -8
-16 4 0 4 -4 -2 -8 -5 -4 -20 -29 -33 -55 -12 -26 -29 -50 -37 -53 -8 -4 -13
-9 -11 -13 3 -4 -4 -13 -15 -20 -22 -13 -14 3 73 147 21 34 38 69 38 77 0 8
10 24 23 36 l22 21 -22 -7 c-15 -4 -23 -2 -23 6 0 7 3 10 6 7 8 -9 54 40 54
57 0 8 5 15 11 15 6 0 9 7 6 15 -4 8 -2 17 3 20 15 10 12 45 -5 51 -15 6 -21
44 -7 44 4 0 8 25 9 56 1 39 -3 57 -13 61 -15 6 -20 53 -5 53 4 0 21 -10 37
-22z m-1068 -24 c-12 -12 -17 -13 -23 -3 -5 7 -4 10 2 6 6 -4 14 0 17 9 4 9 9
14 13 10 4 -3 0 -14 -9 -22z m407 -13 c-23 -22 -72 -40 -61 -22 4 6 15 11 25
11 10 0 24 7 31 15 7 8 15 15 18 15 4 0 -2 -9 -13 -19z m1200 9 c3 -5 1 -10
-4 -10 -6 0 -11 5 -11 10 0 6 2 10 4 10 3 0 8 -4 11 -10z m-2205 -4 c0 -11
-19 -15 -25 -6 -3 5 1 10 9 10 9 0 16 -2 16 -4z m2385 -6 c-3 -5 -11 -10 -16
-10 -6 0 -7 5 -4 10 3 6 11 10 16 10 6 0 7 -4 4 -10z m-1815 -4 c0 -2 -7 -7
-16 -10 -8 -3 -12 -2 -9 4 6 10 25 14 25 6z m-52 -55 c-12 -15 -29 -37 -36
-47 -10 -16 -11 -15 -1 6 11 24 48 70 57 70 2 0 -7 -13 -20 -29z m990 20 c10
-6 4 -17 -23 -44 -21 -21 -34 -37 -31 -37 4 0 -1 -11 -9 -24 -16 -25 -17 -56
-1 -67 11 -9 -12 -49 -28 -49 -17 0 -56 -64 -56 -91 0 -10 -7 -19 -15 -19 -8
0 -15 -5 -15 -11 0 -5 5 -7 10 -4 6 3 10 -1 10 -9 0 -9 5 -16 10 -16 19 0 -8
-38 -36 -52 -15 -7 -26 -17 -25 -22 2 -5 -3 -12 -11 -17 -7 -4 -13 -14 -14
-21 -3 -34 -5 -39 -14 -33 -5 3 -10 4 -10 1 0 -2 -3 -12 -7 -22 -4 -12 -3 -15
6 -10 8 6 7 -2 -3 -22 -9 -17 -16 -42 -16 -55 0 -20 -5 -23 -39 -25 -40 -3
-65 13 -38 24 15 6 12 44 -4 44 -16 0 3 29 22 35 27 9 92 106 79 119 -25 25 6
81 55 100 12 4 15 13 12 27 -4 13 2 29 13 42 14 15 17 24 9 38 -8 15 -3 23 31
45 22 15 39 32 38 38 -1 6 6 25 15 43 9 18 17 36 17 42 0 46 35 73 68 52z
m770 -38 c-3 -16 10 -18 130 -21 100 -2 132 -6 129 -15 -4 -12 -60 -17 -189
-17 -41 1 -68 -3 -68 -10 0 -5 5 -10 10 -10 6 0 10 -7 10 -15 0 -30 -45 -13
-51 20 -4 18 -12 20 -81 20 -42 0 -72 -3 -66 -6 5 -3 0 -9 -11 -12 -12 -3 -19
-1 -15 4 3 5 0 9 -5 9 -6 0 -11 -6 -11 -12 -1 -8 -6 -6 -14 4 -7 10 -15 15
-18 12 -7 -7 -58 17 -58 28 0 10 17 11 22 1 2 -5 49 -6 105 -3 87 4 105 8 118
25 l16 20 -3 -20 c-2 -12 3 -20 12 -20 8 0 14 6 12 14 -1 7 0 22 4 34 6 18 7
18 16 4 5 -9 8 -25 6 -34z m-1723 7 c-8 -16 -18 -50 -22 -75 -6 -46 -26 -75
-38 -56 -9 15 56 161 71 161 3 0 -2 -13 -11 -30z m200 20 c3 -5 1 -10 -4 -10
-6 0 -11 5 -11 10 0 6 2 10 4 10 3 0 8 -4 11 -10z m-331 -17 c-10 -7 -29 -13
-44 -13 -14 0 -36 -7 -48 -16 -12 -8 -27 -12 -32 -9 -6 4 -9 1 -8 -6 2 -6 -9
-15 -25 -20 -16 -4 -25 -4 -21 2 10 16 -8 10 -23 -8 -8 -10 -12 -13 -8 -6 8
16 -42 29 -64 17 -9 -5 -47 -8 -84 -6 -57 2 -67 5 -57 17 8 10 37 13 113 11
56 -2 85 -1 65 1 -21 2 -38 7 -38 11 0 4 -56 6 -125 5 -76 -2 -125 1 -125 7 0
6 21 10 48 10 81 0 457 12 460 14 1 2 9 3 18 3 14 0 14 -2 -2 -14z m1376 13
c0 -2 -8 -10 -17 -17 -16 -13 -17 -12 -4 4 13 16 21 21 21 13z m-2350 -37 c0
-10 -4 -19 -9 -19 -5 0 -11 -8 -14 -17 -3 -16 -5 -16 -11 -2 -9 20 11 72 24
64 5 -3 10 -15 10 -26z m407 15 c-3 -3 -12 -4 -19 -1 -8 3 -5 6 6 6 11 1 17
-2 13 -5z m888 -4 c3 -5 1 -10 -4 -10 -6 0 -11 5 -11 10 0 6 2 10 4 10 3 0 8
-4 11 -10z m585 -24 c-14 -14 -22 -2 -14 18 5 14 9 15 15 4 4 -7 4 -17 -1 -22z
m1847 2 c-3 -7 -5 -2 -5 12 0 14 2 19 5 13 2 -7 2 -19 0 -25z m543 17 c0 -16
-45 -21 -54 -6 -8 12 4 21 31 21 14 0 23 -6 23 -15z m-3981 -17 c-11 -21 -49
-24 -49 -5 0 20 10 27 36 25 18 -2 21 -6 13 -20z m3285 -6 c-1 -7 -2 -23 -2
-37 -1 -14 -7 -25 -13 -25 -6 0 -9 7 -6 15 4 8 2 17 -2 20 -13 7 -1 47 13 42
6 -2 11 -9 10 -15z m-2621 -7 c-3 -9 -8 -14 -10 -11 -3 3 -2 9 2 15 9 16 15
13 8 -4z m2577 4 c0 -5 -72 -9 -162 -8 -90 1 -181 -2 -203 -6 -32 -5 -44 -3
-54 9 -12 15 6 16 203 15 120 -1 216 -5 216 -10z m95 1 c3 -5 1 -10 -4 -10 -6
0 -11 5 -11 10 0 6 2 10 4 10 3 0 8 -4 11 -10z m75 6 c0 -2 -13 -6 -29 -8 -17
-2 -28 -1 -25 4 5 8 54 12 54 4z m-2787 -21 c-3 -9 -8 -14 -10 -11 -3 3 -2 9
2 15 9 16 15 13 8 -4z m1767 -27 c0 -7 -4 -19 -9 -26 -6 -10 -11 -10 -21 3
-12 14 -11 18 1 26 20 12 29 11 29 -3z m-1410 -50 c0 -14 6 -28 13 -31 6 -2
10 -7 7 -10 -12 -13 -28 11 -34 53 -5 33 -4 41 3 30 6 -8 11 -27 11 -42z m20
42 c0 -5 -5 -10 -11 -10 -5 0 -7 5 -4 10 3 6 8 10 11 10 2 0 4 -4 4 -10z m415
0 c4 -6 1 -9 -7 -8 -7 2 -12 -4 -10 -12 2 -8 1 -12 -3 -8 -4 4 -18 -4 -31 -17
-32 -32 -163 -97 -181 -91 -8 3 -12 2 -8 -3 3 -5 -10 -14 -29 -21 -19 -6 -42
-22 -51 -36 -9 -14 -21 -22 -27 -18 -6 4 -8 3 -5 -4 4 -5 4 -18 1 -27 -6 -16
-8 -16 -16 -1 -5 9 -6 21 -3 26 7 12 -17 9 -26 -3 -3 -4 -11 4 -17 18 -10 21
-9 25 6 25 13 0 10 6 -12 23 -19 16 -27 29 -23 42 4 18 5 18 6 -2 1 -30 21
-40 28 -14 3 12 9 21 14 21 13 0 11 34 -3 48 -9 9 -9 12 1 12 7 0 10 4 6 10
-3 5 -13 6 -23 3 -15 -6 -15 -5 -3 10 12 15 16 16 30 4 16 -14 139 -47 173
-47 19 0 136 43 178 65 14 7 26 14 27 14 1 1 5 -4 8 -9z m-1088 -22 c-3 -8 -6
-5 -6 6 -1 11 2 17 5 13 3 -3 4 -12 1 -19z m305 -20 c-8 -8 -9 -4 -5 13 4 13
8 18 11 10 2 -7 -1 -18 -6 -23z m1589 -9 c-12 -11 -21 -24 -21 -29 0 -6 -4
-10 -10 -10 -5 0 -7 8 -4 18 5 16 5 16 -9 0 -19 -24 -30 -23 -15 2 7 11 19 20
26 20 7 0 10 5 6 12 -4 6 -3 8 3 5 6 -4 17 0 24 9 9 11 15 12 17 4 2 -6 -5
-20 -17 -31z m-1365 -26 c10 -21 19 -41 21 -45 2 -5 2 -8 0 -8 -5 0 -47 77
-47 85 0 14 11 1 26 -32z m-117 -14 c-6 -19 -13 -40 -15 -48 -3 -8 -7 -12 -9
-9 -3 2 2 26 11 52 18 53 30 58 13 5z m1691 -35 c7 -13 10 -27 7 -31 -10 -10
-47 28 -47 48 0 25 24 15 40 -17z m-248 17 c-11 -7 -11 -9 2 -14 13 -5 15 -15
10 -47 -4 -25 -2 -45 5 -54 9 -10 9 -20 0 -40 -7 -14 -16 -23 -20 -20 -4 2
-15 -6 -23 -19 -19 -28 -57 -137 -49 -137 3 0 -1 -8 -10 -18 -24 -27 -66 -27
-76 1 -12 31 -4 44 30 56 20 7 30 17 29 28 -4 31 0 44 9 39 14 -9 20 19 11 57
-4 20 -5 39 -2 42 4 3 -1 3 -11 -1 -9 -3 -17 -11 -17 -16 0 -19 -81 -178 -91
-178 -5 0 -9 5 -9 10 0 6 4 10 8 10 4 0 8 10 9 21 1 12 12 32 24 45 16 17 18
24 8 24 -13 0 -59 -60 -59 -78 0 -4 -7 -18 -15 -30 -15 -20 -17 -21 -40 -6
-15 10 -32 13 -46 9 -13 -4 -19 -3 -15 3 11 18 46 21 62 5 8 -8 16 -14 17 -12
1 2 10 19 20 37 10 17 15 32 11 32 -3 0 4 9 17 21 17 14 20 22 12 25 -18 8
-16 25 1 18 10 -4 20 6 30 31 9 21 14 40 12 44 -3 4 4 7 14 7 17 0 16 -4 -6
-42 -26 -44 -29 -54 -15 -54 5 0 14 13 19 29 6 16 20 39 31 50 12 12 19 21 16
21 -3 0 2 8 10 18 8 9 21 26 30 37 12 16 14 16 9 3 -11 -33 7 -18 22 17 8 19
20 35 27 35 9 0 8 -3 -1 -9z m-1489 -59 c-6 -4 -13 -20 -15 -36 -1 -16 -10
-31 -18 -33 -13 -4 -13 -3 -1 5 12 9 13 13 1 27 -8 9 -16 12 -19 6 -4 -6 -12
-6 -21 -1 -11 7 -7 12 20 24 37 16 75 22 53 8z m141 -24 c8 -22 4 -33 -21 -65
-17 -21 -33 -50 -35 -63 -4 -25 -4 -25 -17 5 -11 27 -10 35 13 76 14 26 26 55
26 64 0 24 24 13 34 -17z m736 6 c0 -8 -5 -12 -10 -9 -6 4 -8 11 -5 16 9 14
15 11 15 -7z m-230 2 c0 -2 -8 -10 -17 -17 -16 -13 -17 -12 -4 4 13 16 21 21
21 13z m635 -16 c3 -5 1 -10 -4 -10 -6 0 -11 5 -11 10 0 6 2 10 4 10 3 0 8 -4
11 -10z m445 -20 c0 -16 -4 -30 -9 -30 -12 0 -19 21 -13 43 7 28 22 20 22 -13z
m-1845 10 c3 -5 -1 -10 -9 -10 -9 0 -16 5 -16 10 0 6 4 10 9 10 6 0 13 -4 16
-10z m-74 -37 c-8 -15 -10 -15 -11 -2 0 17 10 32 18 25 2 -3 -1 -13 -7 -23z
m210 -16 c-8 -8 -11 -7 -11 4 0 20 13 34 18 19 3 -7 -1 -17 -7 -23z m459 13
c0 -5 -2 -10 -4 -10 -3 0 -8 5 -11 10 -3 6 -1 10 4 10 6 0 11 -4 11 -10z
m-499 -27 c-19 -65 -74 -182 -83 -177 -6 4 -5 10 3 15 8 5 10 9 5 9 -5 0 -3 6
3 13 6 8 8 17 4 20 -3 4 -2 7 4 7 10 0 27 46 21 52 -2 2 5 14 15 28 9 13 17
32 17 42 0 10 4 18 9 18 6 0 6 -11 2 -27z m629 -8 c9 -24 40 -36 40 -15 0 5
10 15 23 21 21 11 20 10 -4 -17 -14 -16 -38 -42 -52 -59 -28 -31 -35 -72 -18
-104 12 -22 3 -61 -14 -61 -7 0 -15 -9 -18 -21 -4 -13 -10 -18 -18 -13 -7 4
-10 3 -5 -4 3 -5 -5 -24 -19 -40 -25 -30 -34 -72 -15 -72 6 0 10 -11 10 -25 0
-14 -4 -25 -8 -25 -24 0 -51 -178 -30 -192 10 -6 10 -10 -2 -18 -8 -5 -11 -10
-6 -10 5 0 3 -7 -4 -15 -10 -12 -10 -16 1 -19 41 -13 43 -14 23 -15 -12 -1
-40 6 -62 13 -25 9 -44 11 -47 5 -4 -5 -13 -5 -25 1 -30 16 -50 12 -44 -7 5
-15 4 -15 -4 -3 -6 8 -9 17 -6 21 2 4 -5 9 -17 12 -15 4 -23 -1 -29 -19 -12
-31 -24 -31 -18 0 3 16 0 27 -9 30 -26 10 -33 6 -33 -19 0 -28 -2 -29 -30 -15
-48 24 -56 27 -68 23 -6 -3 -9 -10 -6 -15 5 -7 2 -8 -5 -4 -7 5 -10 14 -7 21
7 19 -42 39 -60 24 -12 -10 -13 -9 -8 5 9 22 -22 21 -35 -1 -8 -15 -12 -16
-22 -5 -11 10 -10 12 4 12 23 0 21 17 -4 30 -17 9 -25 8 -41 -7 -20 -18 -21
-18 -10 3 17 33 3 36 -25 6 l-24 -27 17 35 c16 32 16 34 0 21 -14 -12 -16 -12
-10 4 6 14 4 16 -6 10 -9 -6 -11 -4 -5 5 6 10 4 12 -9 7 -9 -4 -14 -3 -11 2
10 17 -12 21 -25 6 -7 -8 -18 -15 -24 -15 -6 0 0 9 13 19 l24 18 -21 21 c-41
41 -11 28 33 -15 43 -41 75 -55 75 -32 0 5 4 7 10 4 6 -3 7 1 4 9 -3 9 -1 16
5 16 6 0 8 7 4 17 -4 10 -2 14 4 10 6 -4 8 3 5 20 -3 16 -1 24 5 20 6 -4 9 11
8 39 -2 43 13 74 35 74 5 0 12 9 15 20 4 11 11 18 16 15 5 -3 6 1 3 9 -3 8 1
30 10 48 8 18 18 46 20 63 3 16 14 36 23 43 15 11 19 10 27 -8 9 -21 -14 -108
-36 -137 -5 -7 -9 -27 -7 -45 4 -58 0 -78 -17 -78 -20 0 -76 -123 -72 -159 2
-21 15 -32 67 -58 l63 -32 21 23 c19 22 22 23 34 7 11 -14 12 -13 13 12 0 16
4 26 9 23 5 -3 7 -14 4 -24 -5 -20 23 -32 126 -53 64 -12 64 -12 85 14 35 44
57 201 25 181 -18 -11 6 33 38 69 20 23 33 48 33 65 0 15 4 41 9 59 7 23 5 37
-4 50 -11 15 -9 22 21 55 19 21 34 45 34 53 0 8 7 15 16 15 10 0 14 5 10 16
-3 9 -2 12 5 8 6 -3 10 1 9 12 -4 32 0 84 5 84 3 0 10 -11 15 -25z m1071 -12
c12 -32 5 -119 -12 -139 -9 -11 -13 -11 -25 0 -10 11 -11 21 -4 43 6 15 9 44
6 63 -6 62 16 82 35 33z m-2041 -23 c5 0 7 -7 4 -15 -4 -8 -1 -15 5 -15 17 0
13 -27 -5 -34 -9 -4 -14 -13 -10 -21 4 -12 -3 -15 -29 -15 -24 0 -35 5 -35 15
0 23 55 116 58 100 2 -8 7 -15 12 -15z m170 21 c0 -17 -22 -71 -30 -71 -16 0
-39 -64 -29 -82 7 -14 6 -18 -6 -18 -24 0 -74 -62 -75 -92 0 -30 -11 -36 -28
-15 -17 19 7 77 51 126 20 23 37 50 37 62 0 26 17 59 44 81 23 19 36 23 36 9z
m528 -11 c-7 -10 -14 -17 -17 -15 -4 4 18 35 25 35 2 0 -1 -9 -8 -20z m901
-20 c14 0 14 -2 1 -10 -9 -6 -17 -5 -21 2 -4 6 -14 8 -22 5 -17 -6 -27 10 -20
30 3 8 11 6 26 -7 11 -11 28 -20 36 -20z m-1312 -2 c-3 -8 -6 -5 -6 6 -1 11 2
17 5 13 3 -3 4 -12 1 -19z m542 -18 c-14 -25 -25 -36 -30 -28 -8 12 28 68 44
68 4 0 -2 -18 -14 -40z m-216 -34 c-4 -5 -7 -23 -8 -39 -2 -28 -1 -29 13 -11
14 18 14 18 9 -3 -3 -13 -1 -26 4 -29 5 -3 9 -18 9 -34 0 -15 5 -30 12 -32 7
-3 9 -12 5 -22 -4 -10 -12 -14 -19 -10 -8 5 -9 2 -5 -10 4 -11 3 -15 -4 -10
-6 3 -9 19 -7 34 4 23 1 28 -18 28 -20 0 -26 -11 -44 -72 -12 -39 -22 -75 -24
-81 -2 -5 -7 7 -11 27 -4 22 -2 51 5 73 6 20 9 43 6 51 -6 16 10 54 27 66 6 4
13 37 15 73 l4 67 19 -28 c10 -15 15 -32 12 -38z m912 33 c-4 -6 1 -17 11 -24
16 -12 17 -14 3 -15 -9 0 -22 7 -30 16 -10 13 -10 17 2 25 18 12 22 11 14 -2z
m640 -71 c4 -18 18 -47 31 -65 13 -17 24 -42 24 -55 0 -17 -7 -10 -26 27 -15
28 -31 52 -36 53 -17 7 -38 34 -33 42 3 5 0 12 -6 16 -8 5 -9 3 -4 -7 6 -11 5
-12 -5 -2 -11 10 -11 15 -1 27 19 23 48 3 56 -36z m-2175 -23 c0 0 -12 -17
-26 -36 -15 -19 -23 -25 -19 -14 4 11 9 27 12 36 2 9 11 16 19 16 8 0 14 -1
14 -2z m245 -95 c-16 -39 -24 -72 -21 -86 7 -27 -11 -33 -21 -8 -4 10 -13 14
-26 10 -12 -3 -28 0 -36 7 -11 9 -13 9 -8 0 4 -6 3 -14 -3 -18 -18 -11 -11 62
8 76 15 13 16 12 3 -4 -12 -16 -11 -20 8 -38 18 -17 22 -18 27 -5 3 9 9 14 14
11 4 -2 22 25 39 61 40 82 51 78 16 -6z m470 60 c3 -5 1 -10 -4 -10 -6 0 -11
5 -11 10 0 6 2 10 4 10 3 0 8 -4 11 -10z m1288 -57 c-5 -12 -3 -14 8 -9 8 4 3
-2 -11 -14 -23 -20 -25 -21 -31 -3 -11 27 -10 31 9 36 30 8 32 7 25 -10z
m-879 -80 c-1 -32 -5 -69 -8 -83 -4 -14 -9 -43 -12 -65 -3 -22 -11 -43 -17
-47 -9 -6 -9 -8 1 -8 6 0 12 -4 12 -10 0 -5 -7 -10 -15 -10 -8 0 -15 -6 -15
-12 0 -7 -5 -5 -11 5 -5 9 -7 22 -4 27 3 6 1 10 -4 10 -6 0 -11 14 -11 30 0
17 5 30 11 30 6 0 3 7 -5 16 -35 34 -35 48 -1 79 18 17 37 31 41 33 12 4 5 35
-9 44 -8 5 -6 12 8 22 30 22 42 4 39 -61z m-388 -6 c18 6 19 -29 3 -93 -13
-51 -26 -56 -40 -14 -6 17 -14 30 -18 30 -4 0 -8 19 -9 42 -1 23 -5 51 -8 61
-4 13 -2 17 5 13 6 -4 11 -1 11 6 0 7 10 -1 21 -19 12 -20 26 -30 35 -26z
m-629 21 c-3 -8 -6 -5 -6 6 -1 11 2 17 5 13 3 -3 4 -12 1 -19z m-40 -30 c-18
-12 -24 -10 -29 10 -5 16 -2 17 18 8 15 -7 19 -13 11 -18z m1224 -1 c-10 -9
-11 -8 -5 6 3 10 9 15 12 12 3 -3 0 -11 -7 -18z m-1395 -27 c-2 -46 -6 -52
-26 -40 -12 8 -12 14 3 44 9 20 19 36 21 36 2 0 3 -18 2 -40z m214 21 c0 -20
-13 -35 -23 -25 -7 8 4 44 14 44 5 0 9 -9 9 -19z m1535 -1 c9 8 14 5 17 -13 3
-16 -1 -28 -14 -36 -15 -9 -18 -8 -18 5 0 8 -4 13 -9 10 -4 -3 -6 7 -3 22 3
15 7 21 10 14 3 -9 8 -10 17 -2z m-1625 -19 c0 -5 -8 -19 -18 -31 -16 -19 -19
-20 -30 -7 -11 13 -9 18 10 31 25 18 38 20 38 7z m161 -4 c-6 -8 -8 -16 -6
-19 3 -3 -9 -4 -27 -2 -30 4 -31 3 -12 -10 18 -14 18 -16 2 -46 -10 -18 -18
-38 -18 -45 0 -14 -32 -37 -47 -34 -18 3 -33 -2 -33 -11 0 -5 7 -7 15 -4 21 8
19 1 -5 -21 -20 -18 -21 -18 -15 1 6 18 6 18 -10 -1 -8 -11 -11 -21 -6 -23 12
-4 3 -32 -11 -32 -5 0 -6 6 -2 13 5 8 2 8 -9 -2 -22 -18 -21 -21 6 -21 15 0
28 8 34 22 8 19 10 20 16 5 4 -10 1 -17 -6 -17 -8 0 -6 -4 3 -10 11 -7 2 -10
-32 -10 -41 0 -48 -3 -48 -20 0 -11 -5 -20 -11 -20 -28 0 68 159 102 167 9 3
15 11 13 17 -3 7 11 26 31 43 30 26 33 32 20 43 -17 14 -11 28 19 40 34 14 50
12 37 -3z m1090 -10 c-10 -9 -11 -8 -5 6 3 10 9 15 12 12 3 -3 0 -11 -7 -18z
m-134 -29 c-3 -7 -5 -2 -5 12 0 14 2 19 5 13 2 -7 2 -19 0 -25z m111 -13 c-3
-3 -9 2 -12 12 -6 14 -5 15 5 6 7 -7 10 -15 7 -18z m-1294 -7 c-4 -13 -8 -48
-9 -78 -1 -30 -5 -66 -9 -80 -11 -41 -9 -92 5 -100 9 -6 9 -12 -3 -24 -14 -14
-16 -9 -22 47 -12 123 -10 174 7 201 9 14 17 32 17 41 0 8 5 15 11 15 6 0 8
-9 3 -22z m2409 -15 c2 6 4 -4 5 -23 0 -19 6 -36 11 -38 17 -6 13 -18 -7 -19
-20 -2 -44 30 -48 64 -2 19 1 21 16 13 13 -7 20 -6 23 3z m-744 -75 c1 -10 -3
-18 -8 -18 -10 0 -21 57 -12 66 6 6 19 -24 20 -48z m301 21 c0 6 10 9 23 7 13
-2 21 -10 21 -20 -1 -9 2 -14 6 -11 4 3 11 -2 14 -11 3 -8 2 -12 -4 -9 -6 3
-10 -1 -10 -9 0 -20 17 -29 24 -14 3 7 3 2 0 -11 -4 -15 -2 -21 4 -17 6 3 14
1 18 -5 4 -8 3 -9 -4 -5 -15 9 -15 7 -1 -33 7 -19 17 -30 24 -27 7 2 18 -6 25
-20 8 -13 17 -24 21 -24 4 0 2 -16 -4 -36 -10 -32 -12 -33 -19 -15 -5 14 -16
21 -33 21 -24 0 -26 3 -21 32 3 18 -2 44 -10 60 -16 31 -26 38 -18 11 4 -10
-3 -3 -15 15 -23 36 -26 46 -11 37 6 -3 10 -1 10 4 0 6 -6 11 -13 11 -8 0 -20
11 -27 25 -13 24 -15 25 -24 8 -6 -10 -17 -18 -23 -17 -7 1 -17 2 -21 3 -14 2
-10 33 6 52 14 16 17 16 39 2 14 -9 23 -11 23 -4z m-1366 -5 c4 -9 4 -19 2
-21 -8 -8 -26 8 -26 23 0 19 16 18 24 -2z m913 1 c0 -8 -4 -12 -9 -9 -4 3 -8
9 -8 15 0 5 4 9 8 9 5 0 9 -7 9 -15z m-89 -4 c1 -1 -2 -10 -8 -21 -11 -20 -50
-28 -50 -11 0 34 16 43 58 32z m-1597 -32 c-9 -22 -10 -22 -10 -3 -1 11 2 24
6 27 12 12 14 0 4 -24z m2629 -53 c0 -5 3 -7 6 -4 3 4 1 16 -6 27 -6 12 -8 21
-6 21 9 0 33 -54 30 -65 -2 -6 9 -16 24 -23 18 -7 36 -29 49 -57 l21 -46 -46
3 c-26 2 -47 8 -48 13 0 6 -6 22 -12 37 -6 15 -9 35 -5 45 5 12 3 14 -8 8 -8
-4 -11 -5 -7 0 4 4 -2 25 -12 46 -11 21 -20 42 -20 46 1 11 39 -40 40 -51z
m-798 14 c-2 -16 -6 -30 -8 -30 -2 0 -4 14 -4 30 0 17 4 30 8 30 5 0 7 -13 4
-30z m-357 -4 c0 -15 -4 -21 -9 -16 -5 5 -6 16 -3 24 9 22 12 20 12 -8z m115
14 c0 -5 -10 -10 -22 -9 -22 0 -22 1 -3 9 11 5 21 9 23 9 1 1 2 -3 2 -9z m-53
-22 c-3 -8 -6 -5 -6 6 -1 11 2 17 5 13 3 -3 4 -12 1 -19z m-1555 -35 c-6 -65
-10 -70 -11 -15 0 28 3 52 7 52 4 0 6 -17 4 -37z m551 22 c-3 -9 -8 -14 -10
-11 -3 3 -2 9 2 15 9 16 15 13 8 -4z m1873 -14 c-2 -34 -16 -55 -16 -23 0 20
9 52 15 52 1 0 2 -13 1 -29z m-2651 -19 c-8 -8 -25 10 -25 26 0 13 2 13 14 -4
8 -10 13 -21 11 -22z m1538 -4 c-2 -5 -13 -8 -24 -8 -19 0 -19 1 -2 26 15 24
17 25 24 8 3 -11 5 -22 2 -26z m-982 -15 c13 -16 12 -17 -3 -4 -10 7 -18 15
-18 17 0 8 8 3 21 -13z m192 2 c-3 -9 -8 -14 -10 -11 -3 3 -2 9 2 15 9 16 15
13 8 -4z m1328 -14 c6 10 9 6 9 -14 0 -16 -4 -26 -9 -23 -5 3 -12 -2 -16 -12
-6 -15 -8 -15 -15 5 -6 13 -4 31 3 47 11 25 12 25 15 4 3 -17 6 -18 13 -7z
m-1605 -9 c-18 -16 -18 -16 -6 6 6 13 14 21 18 18 3 -4 -2 -14 -12 -24z m-576
-3 c0 -11 -3 -11 -24 -3 -23 9 -20 23 4 17 11 -3 20 -9 20 -14z m264 15 c13
-5 14 -9 5 -20 -16 -20 -29 -17 -29 6 0 22 1 23 24 14z m844 -52 c-11 -5 -36
16 -50 42 -9 16 -3 14 23 -9 19 -17 31 -32 27 -33z m1670 32 c5 3 14 -6 20
-19 7 -15 8 -25 2 -25 -6 0 -10 7 -10 15 0 8 -4 15 -9 15 -5 0 -7 -10 -4 -22
l4 -23 -13 23 c-8 12 -17 19 -21 16 -4 -4 -7 3 -7 16 0 18 3 20 15 10 8 -6 18
-9 23 -6z m-2002 -7 c8 3 14 0 14 -7 0 -6 -4 -8 -10 -5 -12 7 -12 3 -4 -19 3
-9 12 -16 20 -16 8 0 14 -5 14 -10 0 -7 -6 -7 -20 0 -11 6 -20 16 -20 23 0 7
-4 6 -10 -3 -8 -13 -14 -10 -37 14 l-28 28 27 -16 c20 -13 28 -14 34 -5 4 8 3
9 -4 5 -7 -4 -12 -3 -12 2 0 14 14 24 18 13 2 -5 10 -7 18 -4z m117 -3 c18 -6
24 -24 8 -24 -5 0 -12 -8 -14 -17 -4 -14 -5 -13 -6 3 0 12 -8 24 -16 28 -13 5
-14 2 -4 -17 9 -19 7 -18 -13 5 -12 14 -30 29 -38 32 -17 7 55 -2 83 -10z
m-772 -20 c82 -74 3 -211 -100 -172 -20 8 -36 20 -36 28 0 15 7 15 68 3 19 -4
34 0 47 12 29 27 25 35 -20 35 -29 0 -40 4 -40 15 0 11 11 15 40 15 44 0 48 5
23 32 -17 19 -78 25 -88 8 -8 -13 -25 -3 -25 14 0 36 95 43 131 10z m526 -6
c-3 -7 -5 -2 -5 12 0 14 2 19 5 13 2 -7 2 -19 0 -25z m383 22 c0 -5 -5 -10
-11 -10 -5 0 -7 5 -4 10 3 6 8 10 11 10 2 0 4 -4 4 -10z m-211 -13 c8 -10 7
-14 -2 -14 -8 0 -14 6 -14 14 0 7 1 13 2 13 2 0 8 -6 14 -13z m237 -7 c0 -11
-4 -20 -8 -20 -4 0 -8 9 -8 20 0 11 4 20 8 20 4 0 8 -9 8 -20z m3034 10 c0 -5
-12 -12 -27 -16 -54 -12 -61 -15 -67 -30 -5 -12 -2 -14 11 -9 30 13 57 7 76
-16 37 -46 6 -112 -53 -112 -45 0 -70 32 -70 90 0 52 13 81 43 93 30 12 87 12
87 0z m-3145 -20 c3 -5 1 -10 -4 -10 -6 0 -11 5 -11 10 0 6 2 10 4 10 3 0 8
-4 11 -10z m-519 -64 c12 -24 13 -38 5 -59 -26 -69 -131 -47 -131 28 0 73 95
96 126 31z m337 35 c14 -6 29 -23 35 -40 l11 -31 -50 0 c-38 0 -49 -4 -49 -16
0 -12 9 -15 40 -12 45 4 54 -11 17 -30 -53 -26 -111 28 -91 86 5 14 21 32 34
39 30 15 24 15 53 4z m520 -19 c23 -21 22 -74 -3 -97 -19 -18 -69 -23 -90 -10
-22 13 -31 57 -19 86 18 46 71 55 112 21z m279 -5 c14 -22 8 -74 -9 -89 -60
-51 -135 -6 -117 69 12 47 100 61 126 20z m441 1 c22 -26 22 -60 -1 -89 -26
-31 -78 -31 -104 0 -59 74 43 161 105 89z m209 -1 c12 -19 9 -72 -6 -92 -17
-23 -71 -24 -93 -2 -22 21 -8 35 18 19 21 -13 59 -8 59 9 0 5 -11 9 -25 9 -16
0 -25 6 -25 15 0 10 10 15 27 15 26 0 26 1 10 17 -15 15 -21 16 -38 5 -21 -14
-43 -7 -33 9 18 29 87 26 106 -4z m271 1 c22 -26 22 -60 -1 -89 -26 -31 -78
-31 -104 0 -59 74 43 161 105 89z m359 -2 c4 -6 8 -19 8 -28 0 -15 -9 -18 -45
-18 -34 0 -45 -4 -45 -16 0 -12 9 -15 40 -12 46 4 54 -11 16 -30 -57 -28 -117
39 -86 96 24 42 87 46 112 8z m146 11 c24 -19 12 -29 -27 -22 -32 5 -41 3 -49
-12 -7 -11 -7 -24 0 -36 8 -15 17 -17 50 -12 32 6 39 4 36 -6 -2 -8 -17 -20
-31 -27 -58 -28 -118 39 -87 96 22 38 71 47 108 19z m420 0 c7 -5 12 -32 12
-64 0 -49 -2 -55 -19 -50 -10 2 -26 0 -35 -5 -12 -7 -24 -5 -42 6 -45 30 -25
76 33 76 18 0 33 4 33 9 0 13 -23 20 -53 14 -33 -6 -37 14 -5 26 24 9 56 4 76
-12z m371 -19 c30 -53 -23 -123 -74 -100 -24 11 -25 10 -25 -23 0 -24 -5 -35
-15 -35 -12 0 -15 17 -15 94 l0 95 30 -1 c17 -1 33 2 36 5 11 11 49 -10 63
-35z m139 14 c6 -9 12 -38 12 -64 0 -47 -1 -48 -28 -46 -15 1 -33 -1 -39 -5
-30 -19 -69 31 -51 66 6 11 21 17 44 17 24 0 34 4 31 13 -2 7 -18 11 -41 9
-40 -3 -49 14 -13 27 28 12 68 3 85 -17z m296 17 c27 -13 44 -51 38 -87 -5
-32 -53 -55 -89 -41 -34 13 -43 26 -43 64 0 35 7 47 35 63 25 14 29 14 59 1z
m294 -17 c6 -9 12 -38 12 -64 0 -46 -1 -48 -27 -47 -16 1 -35 -1 -44 -5 -9 -4
-26 1 -39 12 -22 17 -23 23 -12 46 9 21 18 26 48 26 24 0 34 4 31 13 -2 7 -18
11 -42 9 -27 -2 -36 0 -33 10 10 28 83 28 106 0z m-4506 -7 c-2 -10 2 -21 8
-25 8 -5 5 -9 -8 -12 -17 -5 -20 -1 -20 29 0 21 4 32 12 30 6 -2 10 -12 8 -22z
m288 10 c0 -8 -9 -15 -20 -15 -17 0 -20 -7 -20 -50 0 -37 -4 -50 -14 -50 -11
0 -16 14 -18 48 -3 40 -6 47 -25 50 -13 2 -23 10 -23 18 0 11 15 14 60 14 47
0 60 -3 60 -15z m270 -10 c0 -20 5 -25 25 -25 20 0 25 5 25 25 0 18 5 25 20
25 18 0 20 -7 20 -65 0 -58 -2 -65 -20 -65 -15 0 -20 7 -20 25 0 20 -5 25 -25
25 -20 0 -25 -5 -25 -25 0 -18 -5 -25 -20 -25 -18 0 -20 7 -20 65 0 58 2 65
20 65 15 0 20 -7 20 -25z m328 -10 l18 -36 17 36 c11 23 24 35 37 35 18 0 20
-6 20 -65 0 -51 -3 -65 -15 -65 -11 0 -15 11 -15 38 l-1 37 -15 -27 c-8 -16
-21 -28 -29 -28 -8 0 -21 12 -29 28 l-15 27 -1 -37 c0 -27 -4 -38 -15 -38 -12
0 -15 14 -15 65 0 58 2 65 20 65 12 0 26 -13 38 -35z m162 9 c0 -22 4 -25 28
-22 19 2 27 9 27 23 0 11 8 21 18 23 15 3 17 -5 17 -62 0 -59 -2 -66 -20 -66
-15 0 -19 6 -17 23 2 17 -4 23 -25 25 -24 3 -28 0 -28 -23 0 -20 -4 -26 -17
-23 -15 3 -18 15 -19 66 -2 55 0 62 17 62 14 0 19 -7 19 -26z m40 11 c0 -8 -4
-15 -10 -15 -5 0 -10 7 -10 15 0 8 5 15 10 15 6 0 10 -7 10 -15z m330 0 c0
-10 -10 -15 -30 -15 -29 0 -30 -1 -30 -50 0 -38 -4 -50 -15 -50 -12 0 -15 14
-15 65 l0 65 45 0 c33 0 45 -4 45 -15z m350 -10 c0 -20 5 -25 25 -25 20 0 25
5 25 25 0 18 5 25 20 25 18 0 20 -7 20 -65 0 -58 -2 -65 -20 -65 -15 0 -20 7
-20 25 0 20 -5 25 -25 25 -20 0 -25 -5 -25 -25 0 -18 -5 -25 -20 -25 -18 0
-20 7 -20 65 0 58 2 65 20 65 15 0 20 -7 20 -25z m584 10 c-4 -8 -15 -15 -25
-15 -16 0 -19 -8 -19 -50 0 -38 -4 -50 -15 -50 -11 0 -15 12 -15 50 0 43 -3
50 -20 50 -11 0 -20 7 -20 15 0 12 13 15 60 15 49 0 58 -3 54 -15z m256 -9 c0
-24 23 -41 41 -30 5 3 9 16 9 30 0 15 6 24 15 24 12 0 15 -14 15 -65 0 -51 -3
-65 -15 -65 -8 0 -15 9 -15 20 0 15 -7 20 -24 20 -14 0 -32 7 -40 16 -21 20
-21 74 -1 74 9 0 15 -9 15 -24z m520 10 c0 -7 -9 -16 -20 -19 -16 -4 -20 -14
-20 -51 0 -34 -4 -46 -15 -46 -11 0 -15 12 -15 50 0 43 -3 50 -20 50 -11 0
-20 7 -20 15 0 12 13 15 55 15 40 0 55 -4 55 -14z m60 -11 c0 -20 5 -25 25
-25 20 0 25 5 25 25 0 18 5 25 20 25 18 0 20 -7 20 -65 0 -58 -2 -65 -20 -65
-15 0 -20 7 -20 25 0 20 -5 25 -25 25 -20 0 -25 -5 -25 -25 0 -18 -5 -25 -20
-25 -18 0 -20 7 -20 65 0 58 2 65 20 65 15 0 20 -7 20 -25z m370 -40 c0 -51
-3 -65 -15 -65 -8 0 -15 9 -15 20 0 11 -7 20 -15 20 -8 0 -19 -9 -25 -20 -6
-11 -20 -20 -31 -20 -18 0 -18 2 -4 24 14 21 14 25 0 36 -37 31 -3 70 61 70
l44 0 0 -65z m830 50 c0 -9 -9 -15 -25 -15 -23 0 -25 -3 -25 -50 0 -38 -4 -50
-15 -50 -11 0 -15 12 -15 50 0 43 -3 50 -20 50 -11 0 -20 7 -20 15 0 12 13 15
60 15 47 0 60 -3 60 -15z m-4435 -24 c3 -5 2 -12 -3 -15 -5 -3 -9 1 -9 9 0 17
3 19 12 6z m3175 -33 c0 -19 -2 -20 -10 -8 -13 19 -13 30 0 30 6 0 10 -10 10
-22z m1150 -15 c-11 -17 -11 -17 -6 0 3 10 6 24 7 30 0 9 2 9 5 0 3 -7 0 -20
-6 -30z m103 25 c-6 -7 -13 -20 -16 -28 -3 -9 -6 -3 -6 13 -1 19 4 27 15 27
12 0 14 -4 7 -12z m-2743 -45 c-1 -17 -22 -53 -32 -53 -3 0 -5 16 -6 35 -1 29
2 35 18 35 13 0 20 -7 20 -17z m-1336 -46 c-3 -9 -10 -17 -15 -17 -4 0 -6 -6
-3 -14 3 -7 -1 -16 -10 -19 -12 -5 -12 0 1 39 9 28 19 42 25 36 5 -5 6 -16 2
-25z m786 29 c0 -2 -7 -9 -15 -16 -13 -11 -14 -10 -9 4 5 14 24 23 24 12z
m2870 -11 c0 -8 -4 -15 -10 -15 -5 0 -7 7 -4 15 4 8 8 15 10 15 2 0 4 -7 4
-15z m-3289 -8 c-8 -11 -5 -17 16 -26 21 -10 28 -9 35 1 7 10 9 10 5 -2 -4
-15 -11 -16 -59 -4 -24 5 -28 3 -28 -14 0 -12 5 -24 10 -27 6 -3 10 -11 10
-16 0 -6 -7 -3 -16 5 -8 9 -20 13 -26 10 -6 -4 -6 1 1 14 6 11 8 29 5 39 -4
13 -3 14 3 5 7 -10 14 -8 28 8 20 22 34 28 16 7z m2499 -7 c26 0 50 -35 50
-73 0 -11 4 -15 12 -11 7 5 8 3 3 -6 -4 -7 -2 -16 5 -20 7 -4 9 -13 5 -20 -5
-8 -12 -2 -21 20 -10 22 -19 30 -29 26 -9 -3 -21 4 -31 19 -9 14 -20 23 -24
20 -4 -3 -10 11 -12 30 -3 23 -1 32 6 25 6 -6 21 -10 36 -10z m1086 1 c0 -12
-5 -17 -15 -13 -9 3 -12 1 -7 -6 3 -6 1 -14 -5 -18 -10 -6 -28 11 -29 26 0 5
37 26 50 29 3 0 6 -7 6 -18z m-4076 -12 c0 -11 -4 -18 -10 -14 -5 3 -7 12 -3
20 7 21 13 19 13 -6z m795 -3 c-25 -20 -31 -22 -38 -9 -5 8 -6 17 -3 20 3 4 6
1 6 -5 0 -7 5 -12 11 -12 5 0 7 5 3 12 -4 6 -3 8 2 5 6 -3 16 -2 24 4 28 17
25 9 -5 -15z m2348 -13 c11 -15 -1 -17 -22 -4 -9 6 -11 16 -6 27 6 16 8 16 13
4 2 -8 9 -21 15 -27z m487 -4 c0 -44 -14 -45 -24 -3 -6 23 4 43 22 44 1 0 2
-18 2 -41z m810 3 c0 -13 -3 -12 -15 4 -19 25 -19 40 0 24 8 -7 15 -20 15 -28z
m-4603 -9 c-11 -10 -26 8 -20 23 5 15 7 14 15 -1 6 -9 7 -19 5 -22z m577 28
c3 -5 -2 -15 -12 -22 -15 -12 -16 -12 -5 2 7 9 10 19 6 22 -3 4 -4 7 0 7 3 0
8 -4 11 -9z m267 -18 c-5 -27 -6 -27 -9 -5 -3 19 -8 23 -25 17 -12 -4 -33 -9
-47 -11 -17 -3 -14 0 10 10 19 8 45 15 56 15 18 1 20 -3 15 -26z m239 12 c0
-8 -4 -15 -10 -15 -5 0 -7 7 -4 15 4 8 8 15 10 15 2 0 4 -7 4 -15z m2390 -7
l9 -23 7 23 c7 23 44 32 44 10 0 -18 -15 -40 -26 -39 -5 1 -9 -19 -10 -44 -1
-46 -14 -78 -14 -34 0 13 -9 48 -20 77 -11 29 -15 52 -10 52 6 0 15 -10 20
-22z m430 12 c0 -5 -7 -7 -15 -4 -8 4 -15 8 -15 10 0 2 7 4 15 4 8 0 15 -4 15
-10z m90 0 c0 -5 -2 -10 -4 -10 -3 0 -8 5 -11 10 -3 6 -1 10 4 10 6 0 11 -4
11 -10z m-3913 -22 c-3 -8 -6 -5 -6 6 -1 11 2 17 5 13 3 -3 4 -12 1 -19z
m3273 -57 c0 -20 -3 -47 -7 -59 -10 -40 -23 -3 -23 68 1 59 2 63 15 46 8 -11
15 -36 15 -55z m-2440 46 c0 -2 -12 -17 -26 -33 -19 -21 -23 -23 -15 -7 6 12
8 23 3 26 -4 2 -2 2 5 1 7 -2 15 1 18 6 6 10 15 13 15 7z m330 -12 c17 -9 30
-18 30 -21 0 -4 -59 23 -69 32 -10 9 13 3 39 -11z m2766 -44 c-9 -10 -13 -21
-9 -24 3 -4 1 -7 -5 -7 -8 0 -12 -18 -12 -49 0 -28 -4 -53 -10 -56 -12 -7 -14
114 -2 131 4 6 15 13 25 17 9 3 18 14 18 24 1 17 2 17 6 0 3 -10 -2 -26 -11
-36z m-3163 25 c4 -10 1 -13 -8 -9 -8 3 -12 9 -9 14 7 12 11 11 17 -5z m-604
-13 c-2 -32 -15 -68 -21 -58 -8 14 2 75 13 75 5 0 9 -8 8 -17z m364 1 c-7 -3
-9 -13 -6 -22 5 -13 3 -14 -7 -5 -14 13 -5 33 13 32 9 0 9 -2 0 -5z m2337 -10
c0 15 28 -21 45 -58 15 -32 16 -39 4 -47 -18 -11 -50 -1 -66 20 -6 9 -12 35
-11 59 0 35 3 40 14 31 8 -6 14 -8 14 -5z m1381 -35 c-9 -23 -10 -22 -10 11
-1 23 2 31 9 24 7 -7 7 -19 1 -35z m197 16 c-3 -3 -9 2 -12 12 -6 14 -5 15 5
6 7 -7 10 -15 7 -18z m-932 -73 c-15 -15 -16 -14 -16 5 0 11 -2 36 -6 54 l-5
34 21 -39 c20 -35 20 -40 6 -54z m613 46 l-1 -43 -8 35 c-8 32 -6 50 6 50 2 0
4 -19 3 -42z m-4049 12 c0 -11 5 -20 10 -20 6 0 10 -5 10 -11 0 -5 -4 -7 -10
-4 -5 3 -10 -1 -10 -9 0 -19 -11 -21 -28 -4 -15 15 -15 41 0 56 18 18 28 15
28 -8z m4345 -20 c-11 -18 -22 -11 -22 14 0 22 1 23 14 11 8 -8 11 -19 8 -25z
m-3910 20 c3 -5 1 -10 -4 -10 -6 0 -11 5 -11 10 0 6 2 10 4 10 3 0 8 -4 11
-10z m3512 4 c-3 -3 -12 -4 -19 -1 -8 3 -5 6 6 6 11 1 17 -2 13 -5z m-4147
-34 c-8 -5 -17 -7 -19 -4 -3 3 1 9 9 14 8 5 17 7 19 4 3 -3 -1 -9 -9 -14z
m4430 5 c0 -9 -6 -12 -15 -9 -8 4 -15 10 -15 15 0 5 7 9 15 9 8 0 15 -7 15
-15z m-997 -53 c-3 -12 -10 -22 -15 -22 -5 0 -7 3 -5 8 2 4 7 16 11 26 9 25
17 16 9 -12z m-2632 -5 c-10 -9 -11 -8 -5 6 3 10 9 15 12 12 3 -3 0 -11 -7
-18z m2396 -24 c-3 -10 -5 -5 -5 12 0 17 2 24 5 18 2 -7 2 -21 0 -30z m182 -8
c0 -5 -4 -3 -9 5 -5 8 -9 22 -9 30 0 16 17 -16 18 -35z m-2614 15 c-3 -5 -10
-10 -16 -10 -5 0 -9 5 -9 10 0 6 7 10 16 10 8 0 12 -4 9 -10z m345 -20 c18 -6
4 -8 -47 -9 -43 -1 -73 3 -73 9 0 12 84 12 120 0z"/>
<path d="M2300 1216 c-8 -10 -7 -15 6 -20 22 -8 26 -8 20 3 -4 5 -1 11 6 13 8
3 6 7 -4 11 -9 3 -21 0 -28 -7z"/>
<path d="M2001 1284 c0 -11 3 -14 6 -6 3 7 2 16 -1 19 -3 4 -6 -2 -5 -13z"/>
<path d="M1171 1473 c-1 -6 -4 -20 -7 -30 -5 -17 -5 -17 6 0 6 10 9 23 6 30
-3 9 -5 9 -5 0z"/>
<path d="M2495 1080 c-3 -5 -1 -10 4 -10 6 0 11 5 11 10 0 6 -2 10 -4 10 -3 0
-8 -4 -11 -10z"/>
<path d="M1076 743 c-6 -14 -5 -15 5 -6 7 7 10 15 7 18 -3 3 -9 -2 -12 -12z"/>
<path d="M1240 541 c0 -5 7 -11 15 -15 8 -3 15 -1 15 3 0 5 -7 11 -15 15 -8 3
-15 1 -15 -3z"/>
<path d="M1266 885 c-3 -9 -6 -22 -5 -28 0 -7 5 -1 10 12 5 13 8 26 5 28 -2 2
-6 -3 -10 -12z"/>
<path d="M4150 375 c-18 -22 -1 -50 31 -50 20 0 24 5 24 30 0 23 -5 31 -21 33
-11 2 -27 -4 -34 -13z m40 -21 c0 -9 -5 -14 -12 -12 -18 6 -21 28 -4 28 9 0
16 -7 16 -16z"/>
<path d="M485 370 c-8 -27 12 -52 39 -48 16 2 21 10 21 33 0 25 -4 31 -27 33
-19 2 -28 -2 -33 -18z"/>
<path d="M873 393 c-24 -9 -13 -23 17 -23 32 0 40 14 14 24 -9 3 -16 6 -17 5
-1 0 -8 -3 -14 -6z"/>
<path d="M1354 376 c-11 -28 1 -51 27 -54 29 -3 44 18 34 49 -8 23 -53 26 -61
5z"/>
<path d="M1624 376 c-11 -28 1 -51 27 -54 29 -3 44 18 34 49 -8 23 -53 26 -61
5z"/>
<path d="M2071 372 c-12 -23 4 -52 29 -52 25 0 41 30 29 53 -13 22 -46 22 -58
-1z"/>
<path d="M2551 372 c-20 -38 31 -71 58 -38 9 11 10 20 1 35 -13 26 -46 27 -59
3z"/>
<path d="M2923 393 c-24 -9 -13 -23 17 -23 32 0 40 14 14 24 -9 3 -16 6 -17 5
-1 0 -8 -3 -14 -6z"/>
<path d="M3490 330 c0 -22 20 -26 38 -8 19 19 14 28 -13 28 -18 0 -25 -5 -25
-20z"/>
<path d="M3836 372 c-11 -32 4 -53 33 -50 22 2 26 8 26 33 0 25 -4 31 -27 33
-19 2 -28 -2 -32 -16z m44 -17 c0 -8 -4 -15 -9 -15 -13 0 -22 16 -14 24 11 11
23 6 23 -9z"/>
<path d="M3994 339 c-9 -15 12 -33 30 -26 9 4 16 13 16 22 0 17 -35 21 -46 4z"/>
<path d="M4304 376 c-12 -31 0 -51 31 -51 27 0 30 3 30 30 0 25 -4 30 -28 33
-17 2 -29 -2 -33 -12z"/>
<path d="M4584 339 c-9 -15 12 -33 30 -26 9 4 16 13 16 22 0 17 -35 21 -46 4z"/>
<path d="M3627 384 c-11 -12 3 -24 29 -24 15 0 24 6 24 15 0 15 -40 21 -53 9z"/>
<path d="M1339 2813 c-13 -16 -12 -17 4 -4 16 13 21 21 13 21 -2 0 -10 -8 -17
-17z"/>
<path d="M1478 2783 c17 -2 32 -8 32 -12 0 -3 9 -7 20 -8 11 -1 20 4 20 13 0
11 -13 14 -52 12 -36 -1 -43 -2 -20 -5z"/>
<path d="M1376 2731 c-11 -4 -20 -15 -22 -24 -1 -10 3 -14 12 -10 8 3 11 9 8
14 -3 5 2 9 10 9 9 0 16 5 16 10 0 6 -1 10 -2 9 -2 0 -12 -4 -22 -8z"/>
<path d="M1450 2725 c0 -8 4 -15 10 -15 5 0 7 7 4 15 -4 8 -8 15 -10 15 -2 0
-4 -7 -4 -15z"/>
<path d="M1275 2700 c-3 -6 1 -7 9 -4 18 7 21 14 7 14 -6 0 -13 -4 -16 -10z"/>
<path d="M1318 2663 c7 -3 16 -2 19 1 4 3 -2 6 -13 5 -11 0 -14 -3 -6 -6z"/>
<path d="M1335 2170 c-3 -6 1 -7 9 -4 18 7 21 14 7 14 -6 0 -13 -4 -16 -10z"/>
<path d="M1295 2160 c-3 -6 1 -7 9 -4 18 7 21 14 7 14 -6 0 -13 -4 -16 -10z"/>
<path d="M1364 2148 l-19 -23 23 19 c21 18 27 26 19 26 -2 0 -12 -10 -23 -22z"/>
<path d="M1288 2133 c7 -3 16 -2 19 1 4 3 -2 6 -13 5 -11 0 -14 -3 -6 -6z"/>
<path d="M1360 2100 c0 -11 2 -20 4 -20 2 0 6 9 9 20 3 11 1 20 -4 20 -5 0 -9
-9 -9 -20z"/>
<path d="M573 1821 c-2 -21 23 -36 33 -20 6 10 -13 39 -25 39 -4 0 -7 -9 -8
-19z"/>
<path d="M618 1833 c7 -3 16 -2 19 1 4 3 -2 6 -13 5 -11 0 -14 -3 -6 -6z"/>
<path d="M795 1829 c-4 -6 -5 -13 -2 -16 7 -7 27 6 27 18 0 12 -17 12 -25 -2z"/>
<path d="M927 1827 c15 -7 34 -7 55 0 31 9 30 10 -22 10 -45 0 -51 -1 -33 -10z"/>
<path d="M870 1820 c-21 -13 2 -35 27 -25 17 8 17 8 -1 13 -15 3 -16 6 -5 13
8 5 10 9 4 9 -5 0 -17 -5 -25 -10z"/>
<path d="M1120 1821 c0 -7 -9 -9 -24 -5 -17 4 -25 1 -30 -12 -9 -23 7 -38 32
-30 18 6 37 44 27 55 -3 2 -5 -1 -5 -8z"/>
<path d="M700 1800 c-14 -11 -23 -20 -20 -21 3 0 12 -2 22 -4 10 -2 18 5 21
21 2 13 4 24 3 24 0 0 -12 -9 -26 -20z"/>
<path d="M1130 1790 c0 -5 5 -10 10 -10 6 0 10 5 10 10 0 6 -4 10 -10 10 -5 0
-10 -4 -10 -10z"/>
<path d="M468 1730 c26 -27 34 -30 77 -25 49 4 81 21 54 28 -22 7 -134 27
-147 27 -7 0 1 -13 16 -30z"/>
<path d="M1060 1729 c0 -5 5 -7 10 -4 6 3 10 8 10 11 0 2 -4 4 -10 4 -5 0 -10
-5 -10 -11z"/>
<path d="M1025 1720 c3 -5 11 -10 16 -10 6 0 7 5 4 10 -3 6 -11 10 -16 10 -6
0 -7 -4 -4 -10z"/>
<path d="M1115 1710 c-3 -5 1 -10 10 -10 9 0 13 5 10 10 -3 6 -8 10 -10 10 -2
0 -7 -4 -10 -10z"/>
<path d="M1374 1624 c-18 -14 -18 -15 4 -4 12 6 22 13 22 15 0 8 -5 6 -26 -11z"/>
<path d="M3994 1244 c3 -9 6 -23 7 -32 0 -12 3 -10 10 6 8 22 14 23 81 22 91
-3 96 -2 78 10 -8 5 -53 10 -99 10 -72 0 -82 -2 -77 -16z"/>
<path d="M4200 1250 c0 -5 9 -10 20 -10 11 0 20 5 20 10 0 6 -9 10 -20 10 -11
0 -20 -4 -20 -10z"/>
<path d="M4443 1232 c-73 -2 -113 -7 -113 -13 0 -6 9 -9 20 -6 12 3 23 -1 29
-10 9 -18 60 -21 70 -5 4 7 30 10 66 8 61 -4 85 0 85 14 0 12 -37 15 -157 12z"/>
<path d="M4620 1232 c0 -14 11 -21 26 -15 21 8 17 23 -6 23 -11 0 -20 -4 -20
-8z"/>
<path d="M4770 1230 c0 -5 4 -10 9 -10 6 0 13 5 16 10 3 6 -1 10 -9 10 -9 0
-16 -4 -16 -10z"/>
<path d="M4160 1204 c0 -8 5 -12 10 -9 6 4 8 11 5 16 -9 14 -15 11 -15 -7z"/>
<path d="M3110 1178 c0 -9 5 -20 10 -23 13 -8 13 5 0 25 -8 13 -10 13 -10 -2z"/>
<path d="M3328 1183 c6 -2 18 -2 25 0 6 3 1 5 -13 5 -14 0 -19 -2 -12 -5z"/>
<path d="M3056 1171 c-7 -11 22 -23 35 -15 5 3 7 10 4 15 -8 12 -32 12 -39 0z"/>
<path d="M3195 1170 c3 -5 11 -10 16 -10 6 0 7 5 4 10 -3 6 -11 10 -16 10 -6
0 -7 -4 -4 -10z"/>
<path d="M3765 1149 c-16 -4 -22 -7 -12 -8 20 -1 23 -27 5 -34 -10 -4 -10 -6
-1 -6 12 -1 50 47 42 52 -2 2 -17 0 -34 -4z"/>
<path d="M4320 1144 c0 -12 -6 -15 -24 -10 -13 3 -48 1 -77 -4 -35 -7 -55 -7
-57 -1 -4 11 -72 -29 -72 -41 0 -15 39 -8 48 8 8 14 14 15 47 4 33 -11 40 -11
50 4 16 21 32 20 38 -3 3 -13 17 -21 45 -26 75 -12 117 -13 125 -1 5 7 10 7
13 1 2 -5 37 -10 77 -9 39 0 80 -4 89 -8 9 -5 19 -4 23 2 6 10 88 6 106 -5 19
-12 44 5 44 30 0 20 -5 25 -20 24 -38 -3 -47 1 -41 16 3 9 0 15 -8 15 -8 0
-16 -7 -20 -15 -8 -22 -26 -18 -26 6 0 21 0 21 -20 -2 -15 -19 -19 -20 -20 -8
0 26 -51 31 -71 8 -14 -17 -18 -17 -29 -4 -15 18 -42 19 -58 3 -10 -10 -14
-10 -21 0 -4 7 -15 10 -23 7 -9 -4 -18 1 -22 11 -5 13 -9 14 -21 4 -12 -10
-21 -10 -41 -1 -32 14 -34 14 -34 -5z"/>
<path d="M3660 1140 c0 -5 5 -10 11 -10 5 0 7 5 4 10 -3 6 -8 10 -11 10 -2 0
-4 -4 -4 -10z"/>
<path d="M3855 1140 c3 -5 10 -10 16 -10 5 0 9 5 9 10 0 6 -7 10 -16 10 -8 0
-12 -4 -9 -10z"/>
<path d="M3957 1136 c-4 -10 -5 -21 -2 -24 9 -9 17 6 13 25 -3 17 -4 17 -11
-1z"/>
<path d="M3245 1129 c-8 -12 -6 -15 22 -23 18 -6 20 -4 16 14 -6 21 -28 27
-38 9z"/>
<path d="M3375 1130 c-4 -6 -3 -16 3 -22 13 -13 23 4 13 21 -7 10 -10 10 -16
1z"/>
<path d="M4031 1121 c-17 -11 -5 -31 19 -31 24 0 36 20 19 31 -8 5 -16 9 -19
9 -3 0 -11 -4 -19 -9z"/>
<path d="M3572 1103 c2 -9 9 -18 16 -21 18 -6 15 25 -4 32 -11 4 -14 1 -12
-11z"/>
<path d="M3820 1110 c-9 -6 -10 -10 -3 -10 6 0 15 5 18 10 8 12 4 12 -15 0z"/>
<path d="M3146 1101 c-4 -5 3 -7 14 -4 23 6 26 13 6 13 -8 0 -17 -4 -20 -9z"/>
<path d="M3997 1093 c-4 -3 -7 -11 -7 -17 0 -6 5 -5 12 2 6 6 9 14 7 17 -3 3
-9 2 -12 -2z"/>
<path d="M3325 980 c-8 -13 15 -24 27 -12 6 6 4 11 -6 15 -8 3 -18 2 -21 -3z"/>
<path d="M3855 970 c-3 -5 1 -10 10 -10 9 0 13 5 10 10 -3 6 -8 10 -10 10 -2
0 -7 -4 -10 -10z"/>
<path d="M4150 954 c0 -8 9 -14 20 -14 11 0 20 4 20 9 0 5 -9 11 -20 14 -13 3
-20 0 -20 -9z"/>
<path d="M4265 960 c-3 -5 1 -10 9 -10 9 0 16 5 16 10 0 6 -4 10 -9 10 -6 0
-13 -4 -16 -10z"/>
<path d="M4700 910 c-13 -8 -13 -10 2 -10 9 0 20 5 23 10 8 13 -5 13 -25 0z"/>
<path d="M4498 902 c-10 -2 -18 -10 -18 -18 0 -18 51 -16 57 2 5 14 -15 22
-39 16z"/>
<path d="M4582 903 c-27 -10 19 -43 60 -43 33 0 38 3 38 24 0 21 -5 23 -42 24
-24 0 -49 -2 -56 -5z"/>
<path d="M4765 881 c-3 -5 -1 -12 5 -16 5 -3 10 1 10 9 0 18 -6 21 -15 7z"/>
<path d="M527 841 c-4 -17 -3 -21 5 -13 5 5 8 16 6 23 -3 8 -7 3 -11 -10z"/>
<path d="M20 780 c0 -5 5 -10 10 -10 6 0 10 5 10 10 0 6 -4 10 -10 10 -5 0
-10 -4 -10 -10z"/>
<path d="M4551 644 c0 -11 3 -14 6 -6 3 7 2 16 -1 19 -3 4 -6 -2 -5 -13z"/>
<path d="M321 614 c0 -11 3 -14 6 -6 3 7 2 16 -1 19 -3 4 -6 -2 -5 -13z"/>
<path d="M4742 618 c6 -18 28 -21 28 -4 0 9 -7 16 -16 16 -9 0 -14 -5 -12 -12z"/>
<path d="M4306 565 c-3 -8 -1 -15 4 -15 6 0 10 7 10 15 0 8 -2 15 -4 15 -2 0
-6 -7 -10 -15z"/>
<path d="M3885 470 c-3 -5 -1 -10 4 -10 6 0 11 5 11 10 0 6 -2 10 -4 10 -3 0
-8 -4 -11 -10z"/>
<path d="M4401 464 c0 -11 3 -14 6 -6 3 7 2 16 -1 19 -3 4 -6 -2 -5 -13z"/>
<path d="M3625 460 c3 -5 11 -10 16 -10 6 0 7 5 4 10 -3 6 -11 10 -16 10 -6 0
-7 -4 -4 -10z"/>
<path d="M4762 420 c0 -14 2 -19 5 -12 2 6 2 18 0 25 -3 6 -5 1 -5 -13z"/>
<path d="M65 10 c-3 -5 -1 -10 4 -10 6 0 11 5 11 10 0 6 -2 10 -4 10 -3 0 -8
-4 -11 -10z"/>
</g>
</svg>
